<?xml version="1.0" encoding="utf-8"?>
<svg xmlns="http://www.w3.org/2000/svg" xmlns:xlink="http://www.w3.org/1999/xlink" version= "1.1" width="1500px" height="1141px" viewBox="-390 143 1500 1141">
<g id="layer1">
<g style="fill:rgb(5,180,205); fill-opacity:1.0; stroke-linejoin: miter">
<path d="M-390.001,141.61789C-390.3673,141.61789,-390.7186,141.7634,-390.9776,142.0224C-391.2366,142.2814,-391.3821,142.6327,-391.3821,142.999L-391.3811,1284.0C-391.3811,1284.7628,-390.76276,1285.3811,-390.0,1285.3811L1110.001,1285.3821C1110.3673,1285.3821,1110.7185,1285.2366,1110.9775,1284.9775C1111.2366,1284.7185,1111.3821,1284.3673,1111.3821,1284.001L1111.3811,143.0C1111.3811,142.23723,1110.7628,141.6189,1110.0,141.6189L-390.001,141.61789 Z"/>
</g>
<g style="fill:rgb(255,177,147); fill-opacity:1.0; stroke-linejoin: miter">
<path d="M684.438,679.3144C689.28235,684.46246,690.4818,691.4423,688.04285,701.05133C687.41455,703.48334,686.8557,706.07367,686.82227,706.8444C686.78845,707.61566,686.46326,708.9379,686.1405,709.8094C685.81726,710.6807,685.3971,712.9615,685.20654,714.8785C684.4812,722.3986,683.9973,725.3184,682.8939,728.414C682.2626,730.2225,681.4298,732.9787,681.0326,734.59515C680.59546,736.1866,680.0912,737.7922,679.88684,738.11615C679.6572,738.4808,679.4088,739.68195,679.2921,740.8525C679.1763,742.0246,678.9783,743.14484,678.8252,743.38776C678.67224,743.6302,678.4857,744.6442,678.44556,745.6945C678.3661,746.7188,677.93225,748.4825,677.4159,749.57074C676.12463,752.6042,674.3867,758.4111,674.08813,760.7684C673.7954,762.8475,672.9249,769.8798,672.24866,775.168C672.04956,776.7398,671.9209,778.4693,671.99927,778.97125C672.32764,781.95087,669.7374,791.3505,667.00037,797.03595C666.0796,798.9451,665.1929,801.158,665.0532,801.9184C664.8876,802.7194,664.2731,804.1429,663.66003,805.1143C662.07715,807.6236,656.8207,820.26434,656.5032,822.38324C656.3412,823.3564,655.82104,825.3482,655.37866,826.76654C654.9369,828.18524,654.0382,830.9566,653.37036,832.9124C652.7433,834.8934,652.172,836.966,652.1594,837.52386C652.04736,838.8676,648.51965,846.884,645.91785,851.63654C643.44385,856.1867,641.9171,859.8637,641.25696,862.61554C640.99365,863.75055,640.38367,865.34625,639.8728,866.1558C639.3623,866.9654,638.599,868.8039,638.15674,870.22235C637.7145,871.6409,636.3113,874.94244,634.98193,877.4986C633.693,880.0806,632.6233,882.4047,632.63184,882.7496C632.6045,883.24176,631.93896,884.74567,627.2385,894.1729C623.75476,901.3116,623.43726,904.5058,626.18335,905.44574C627.3076,905.8155,631.8262,904.9307,632.23486,904.28326C632.36194,904.0805,633.4249,903.56256,634.58276,903.1612C635.74097,902.7603,637.56555,901.9306,638.6538,901.372C642.01917,899.5341,647.1199,896.4703,647.91394,895.83954C648.33093,895.53656,649.0231,895.0678,649.42944,894.87177C652.0016,893.66473,657.78723,889.33575,659.6985,887.2027C660.4984,886.293,661.8838,884.9036,662.84607,884.0959C665.48315,881.79816,673.4784,872.97894,674.9591,870.63116C675.73975,869.48236,677.0702,868.00165,677.9558,867.315C682.97253,863.5767,684.9857,861.2823,688.2766,855.4361C695.9303,842.04425,698.6615,836.6374,699.0304,834.4377C699.2384,833.211,700.1782,830.4649,701.07935,828.3178C702.44727,825.16254,703.13684,824.0701,704.90906,822.24567C707.6504,819.33527,714.6686,814.93536,718.7886,813.5163C724.1332,811.6811,729.68335,812.74884,732.931,816.21136C734.50195,817.9384,736.05334,823.10333,735.3385,824.23676C735.10864,824.60065,734.7732,826.02997,734.55457,827.36334C734.28784,829.4014,733.5454,831.02716,730.3568,836.71075C728.1957,840.49664,726.02185,844.8404,725.5437,846.4062C725.0249,847.94586,723.91956,850.4172,723.0005,851.8743C722.0812,853.3315,720.8627,856.07135,720.2612,858.01154C719.66003,859.9522,718.69604,862.2867,718.1355,863.1773C717.5885,864.1341,716.78,865.77435,716.3445,866.914C715.8727,868.2005,714.2744,870.64435,712.10156,873.46124C709.1847,877.27924,708.3568,878.68085,706.67725,882.60065C705.03784,886.54535,702.6422,890.52277,691.22,908.7238C675.3301,934.0085,677.7965,931.2641,667.0425,936.02423C659.3889,939.45795,658.7074,939.8201,655.2654,941.7797C653.6686,942.69635,650.72437,944.4041,648.6295,945.5722C646.5752,946.7663,644.4657,947.86835,643.9121,948.0285C643.38416,948.1484,642.8347,948.481,642.7069,948.68304C642.55383,948.9262,641.5574,949.4295,640.5056,949.8411C638.87463,950.4537,632.7903,953.462,627.7063,956.1403C626.0945,956.9909,617.9883,961.94965,614.5143,964.2287C611.615,966.1342,608.68823,968.53204,608.0497,969.5439C607.76917,969.98895,606.8729,970.78217,606.0386,971.3874C605.22974,971.95233,602.8462,974.29645,600.7665,976.606C597.4193,980.2089,596.7665,981.15533,595.8435,983.51556C595.25867,985.0706,594.37256,987.284,593.8602,988.54535C593.37317,989.76544,592.8585,991.4777,592.74817,992.3703C592.6234,993.1965,592.2517,994.773,591.9325,995.81635C591.61365,996.86017,591.01074,999.25226,590.6227,1001.2139C590.25964,1003.1353,589.5541,1005.6893,589.06714,1006.9091C588.2107,1009.25494,586.8258,1015.39764,586.9584,1016.4432C587.00806,1016.8132,586.48987,1019.4289,585.8037,1022.22125C583.97266,1029.6106,583.63513,1031.491,583.6045,1032.8857C583.6217,1033.5759,583.32263,1034.8584,582.9995,1035.7295C582.6759,1036.6003,582.1981,1039.2417,581.8998,1041.5991C581.6161,1044.0227,581.20605,1046.1975,581.0276,1046.4812C580.8485,1046.7642,580.677,1047.844,580.6631,1048.8538C580.6487,1049.8633,580.52795,1050.8623,580.3999,1051.0645C579.9149,1051.8337,578.1487,1067.0149,578.4706,1067.6702C578.5565,1067.8943,578.40576,1068.7607,578.0669,1069.5659C577.4617,1071.3342,576.7002,1076.3987,576.8926,1077.7085C576.9719,1078.2112,576.87683,1079.1694,576.681,1079.8381C576.48584,1080.5073,576.3993,1081.8103,576.4208,1082.6726C576.4833,1083.5608,576.1094,1088.1907,575.61816,1092.917C574.2833,1105.7104,574.3827,1108.602,576.6831,1122.8965C579.55286,1140.7756,581.2722,1145.7639,586.3811,1151.9282C587.9009,1153.7351,589.819,1156.0769,590.697,1157.1958C591.5602,1158.2498,593.5187,1160.6167,595.0386,1162.4233C596.5327,1164.271,597.8944,1166.1484,598.0801,1166.6611C598.1998,1167.1895,598.5322,1167.7385,598.7346,1167.8665C598.937,1167.9939,599.79285,1170.8533,600.6467,1174.1643C601.47546,1177.5161,602.27563,1180.2842,602.4375,1180.3865C602.55896,1180.4631,602.8948,1182.7117,603.18823,1185.3862C603.46704,1187.9951,603.8174,1190.3096,603.9282,1190.4924C604.0392,1190.6753,604.369,1193.2031,604.5897,1196.1716C604.8373,1199.1001,605.2871,1203.2314,605.61804,1205.3069C605.94995,1207.3833,606.1279,1209.7024,606.0941,1210.4736C605.9474,1213.04,607.22876,1225.8999,608.07007,1229.7686C608.4038,1231.3933,608.83923,1233.9314,609.011,1235.4541C609.5403,1240.0879,601.1459,1274.1956,596.4645,1271.81C591.7251,1269.4468,589.8718,1266.0212,589.6362,1265.9844C569.96606,1262.8315,577.11487,1244.76,525.4636,1212.1843C475.26962,1180.5278,434.2852,1154.4534,434.38693,1154.291C434.51486,1154.0886,434.33975,1153.4692,433.96652,1152.8948C433.6594,1152.3049,432.28464,1149.9102,430.99014,1147.5664C429.65567,1145.197,427.72195,1141.7141,426.61295,1139.8833C425.53012,1138.0122,424.57938,1136.1108,424.5151,1135.6743C424.4507,1135.2378,424.28024,1134.7908,424.07785,1134.6633C423.79428,1134.4846,422.49594,1131.9678,421.04764,1128.7915C418.57413,1123.384,417.3071,1120.5479,417.08755,1119.7305C416.66702,1118.3335,412.4504,1111.2039,411.01138,1109.448C410.29922,1108.6025,409.40622,1107.4172,409.04434,1106.7363C408.64053,1106.029,408.10623,1105.3525,407.90335,1105.2244C407.45834,1104.9441,402.70438,1097.5889,401.45102,1095.271C401.0883,1094.5894,400.00552,1092.718,399.00766,1091.0706C398.00998,1089.4226,396.7819,1087.0637,396.23367,1085.8696C395.71103,1084.6345,394.8607,1083.0234,394.321,1082.1736C393.79666,1081.3904,392.89047,1079.6873,392.28677,1078.4016C391.68326,1077.116,390.55093,1074.874,389.70474,1073.4348C388.88394,1071.9553,387.72592,1069.7537,387.163,1068.4932C386.3441,1066.5627,384.56143,1063.2883,381.99277,1058.8394C380.46573,1056.2351,373.16666,1044.8428,372.8834,1044.6641C372.68088,1044.5361,372.47006,1044.0637,372.43124,1043.5864C372.3524,1043.084,371.89365,1042.2856,371.42917,1041.7666C370.93918,1041.2874,369.0076,1038.4285,367.11264,1035.4231C365.243,1032.3765,363.3525,1029.5437,362.96866,1029.0752C362.54446,1028.5815,361.72342,1027.1016,361.14584,1025.7756C360.59268,1024.4084,359.9147,1022.7922,359.63345,1022.16254C358.64786,1019.9565,357.30618,1016.79034,356.2014,1014.05707C355.55338,1012.57294,354.4932,1010.0374,353.78946,1008.46234C353.06003,1006.92706,352.06003,1004.6558,351.55246,1003.487C351.0449,1002.31805,350.23026,1000.559,349.74203,999.6287C347.56735,995.5412,343.3903,987.36237,342.39407,985.263C341.79092,983.97723,340.92032,982.1268,340.43204,981.1966C339.56656,979.519,337.6066,975.0013,336.99002,973.1976C336.84512,972.71014,336.00204,970.3681,335.2106,967.94525C334.39322,965.56256,333.40994,962.90546,333.04312,962.0522C331.454,958.5601,331.10214,957.7724,330.43277,956.5015C330.03006,955.7952,329.37094,954.4172,328.93338,953.40643C328.51126,952.4609,327.20224,950.05096,326.02292,948.0623C324.60745,945.642,323.558,942.9998,322.8596,940.0699C321.5892,934.4594,322.29166,931.2818,326.59055,923.29926C328.24106,920.32306,329.56204,917.42194,329.6403,916.8487C329.6528,916.29095,330.33932,914.57355,331.07114,913.055C332.73874,909.69354,334.66623,903.49725,334.45877,902.1219C334.405,901.57855,334.65964,900.0983,335.02542,898.8011C337.91568,889.1945,338.53104,886.2443,338.69516,882.21735C338.94925,877.0588,340.16183,865.7159,340.90714,862.112C343.02988,851.56903,344.5084,848.5972,348.15134,847.2176C350.42722,846.38983,354.13913,846.6938,356.0013,847.8682C357.418,848.76154,361.25174,849.143,362.26913,848.42633C362.63528,848.2044,365.17593,844.71454,367.94186,840.68756C373.3201,832.8765,379.93405,824.544,383.25424,821.43243C384.36954,820.382,385.65897,818.87555,386.11868,818.14703C387.75235,815.55634,392.3787,813.1552,398.01913,812.0164C400.89792,811.399,403.4514,811.02924,403.65372,811.15704C403.8964,811.31,405.17014,811.26434,406.56088,811.123C407.8854,810.9965,409.62045,810.8461,410.31058,810.8287C411.0004,810.81134,413.7606,810.7414,416.4138,810.6608C424.587,810.44037,426.26114,810.47797,428.6849,810.7618C429.65836,810.92267,432.442,811.264,434.78452,811.4965C437.1423,811.7956,439.2618,812.1137,439.5045,812.26715C439.94913,812.54755,446.8351,813.3824,451.7291,813.6967C453.35184,813.81464,457.43942,814.2425,460.75528,814.6359C464.0964,814.9893,467.75797,815.37494,468.82278,815.48065C471.42972,815.6536,474.38394,817.5173,476.8934,820.6269C479.13956,823.34515,481.88724,827.5109,482.33316,828.86725C482.6639,829.868,487.66757,838.17255,491.02512,843.34503C492.29544,845.2779,493.52542,847.1851,493.72177,847.59186C493.91818,847.99835,494.9158,849.6463,495.93875,851.253C496.96243,852.8608,498.071,854.69183,498.45853,855.3321C498.82144,856.01337,499.9341,858.017,500.97696,859.8626C502.00394,861.6424,503.28812,864.0926,503.79562,865.2614C505.6298,869.52997,507.53128,872.2568,509.5295,873.5738C511.94797,875.212,513.2213,875.16644,519.1489,873.3033C523.1926,872.00616,524.9979,870.9383,528.91345,867.24054C530.9758,865.31647,536.06006,856.358,536.26074,854.3348C536.33057,853.41656,537.00586,849.65546,537.7617,845.945C538.4762,842.20905,539.31287,837.47455,539.5541,835.477C539.8209,833.4388,540.16504,831.2791,540.3346,830.65045C540.5045,830.02203,540.614,828.0544,540.5957,826.289C540.5232,821.82965,540.5442,821.61664,541.28735,814.78656C542.1315,806.7194,542.2649,805.16254,542.1549,803.4521C542.1035,802.45807,542.81665,799.1735,544.03174,794.73456C544.4696,793.1431,544.9946,791.3244,545.14966,790.62994C545.6957,788.5977,546.412,779.6573,546.1659,777.8045C546.0477,776.82513,545.9293,774.7703,545.94556,773.3089C545.94653,771.7818,545.94543,769.63116,545.91516,768.4239C545.7942,763.1424,545.7178,760.6612,545.64954,760.0524C545.5747,759.7221,545.57874,758.8194,545.6526,758.0744C545.7008,757.36884,545.57654,755.59283,545.32837,754.19183C544.9436,751.5727,544.6837,748.1276,544.6924,744.79474C544.7169,740.0007,544.51294,737.722,544.01245,734.74725C543.07874,729.85834,542.4275,722.997,542.24866,717.00055C542.115,711.20135,541.56494,706.7802,540.15906,699.49994C539.69727,697.0025,539.1304,692.9672,538.8812,690.4903C537.3805,674.2105,536.46716,668.0329,535.4957,667.4206C534.96924,667.08795,534.38074,659.5882,534.69446,657.2966C534.84705,655.9782,535.1719,653.5805,535.3965,651.96783C535.6206,650.35565,535.978,648.7137,536.182,648.3897C536.3862,648.06635,536.8131,646.5815,537.1334,645.0859C538.3755,639.0798,543.02673,631.8851,547.49243,628.9306C554.23206,624.5246,564.7898,626.71295,568.1266,633.1744C569.4806,635.78204,571.10706,641.2773,571.3241,644.0738C571.4208,645.2662,572.04065,648.7695,572.66223,651.8204C573.2582,654.9119,574.07837,658.99396,574.4719,660.88275C574.8794,662.83734,575.62317,665.9655,576.21375,667.8095C576.7793,669.69366,577.4758,673.07526,577.70483,675.3134C577.97473,677.5767,578.7195,681.77997,579.37683,684.68463C580.0199,687.52325,580.7893,691.6856,581.04395,693.8837C581.52075,697.52277,582.4679,702.9288,583.39954,707.19403C583.6085,708.11835,583.76526,709.57477,583.7467,710.4118C583.76843,711.27435,584.03723,712.46234,584.38513,713.0777C585.916,715.85443,589.2521,723.84235,590.09265,726.63544C592.7539,735.7829,594.979,747.5965,594.9243,752.258C594.86584,756.74774,597.08203,769.2917,600.6847,785.19977C602.927,795.1016,603.37585,798.15717,603.3014,804.1075C603.26807,804.8785,603.0095,807.26166,602.65063,809.3548C601.16614,818.8863,601.2317,821.4733,602.8508,822.4947C603.49854,822.903,604.38025,823.1197,604.8273,822.94916C606.25,822.48834,608.286,819.52875,609.96155,815.4368C610.84814,813.2237,612.76025,809.56354,614.21545,807.2563C615.6454,804.9898,616.96423,802.53937,617.07837,801.81976C617.2335,801.1254,618.45166,798.38544,619.79236,795.72284C621.1317,793.0601,622.8883,789.019,623.66846,786.7951C624.51514,784.55634,625.60547,782.0191,626.1677,781.1286C626.72925,780.2382,627.73267,777.9289,628.38513,775.9074C629.0526,773.95184,630.6832,769.6618,632.0104,766.4816C634.63806,760.1611,635.37195,758.1911,635.93835,755.94574C636.1301,755.1047,636.8611,752.5102,637.5049,750.1442C638.21436,747.7624,638.8237,745.0916,638.91907,744.13324C639.02954,743.241,639.40125,741.665,639.73474,740.6868C641.26306,736.55853,642.9696,731.0715,643.0394,730.154C643.0519,729.5955,643.7854,727.6254,644.58887,725.8128C645.4592,723.9848,646.2644,721.72076,646.4407,720.8134C646.5508,719.9212,647.157,718.1528,647.6836,716.95746C648.28796,715.64154,648.9457,712.2652,649.3313,708.60443C649.6714,704.7453,650.3191,701.47577,651.0458,699.78436C651.69714,698.2144,654.5154,693.65485,657.9198,688.6165C663.49854,680.3094,663.7433,680.0108,666.3423,678.3122C669.6223,676.2507,674.3434,675.49347,678.7888,676.42975C681.8855,677.0817,682.7865,677.53705,684.438,679.3144L684.4424,679.31696 Z M428.77994,859.5937C426.7161,859.3671,424.6268,859.18097,424.1755,859.179C420.9443,859.0087,417.75583,858.4122,415.83688,857.59796C411.9426,855.87787,409.2128,856.07916,405.475,858.41815C401.8795,860.62054,398.56747,863.0013,398.21005,863.5682C398.03128,863.8514,396.77298,865.03815,395.41965,866.10834C392.8184,868.25885,390.2377,869.12067,386.2045,869.2364C380.88284,869.33124,375.43143,870.08014,374.65262,870.77716C372.64084,872.6203,373.17715,875.4482,376.47763,880.981C378.5433,884.4339,379.50272,889.28253,379.73965,897.0705C379.74454,898.31866,380.6082,903.05,381.5585,907.55316C382.50967,912.05707,383.34274,916.6563,383.38412,917.75726C383.51883,922.0296,383.22263,925.01105,382.63535,925.9422C381.1547,928.29,380.96585,929.75507,381.8259,931.71173C382.31827,932.8145,383.17538,934.1468,383.72116,934.7177C384.6052,935.55817,385.35165,936.7077,388.83292,942.58136C389.25064,943.35345,389.96524,944.8228,390.37662,945.8743C390.78806,946.9262,391.46652,948.54193,391.9144,949.44696C392.36227,950.35187,393.44308,952.6745,394.34384,954.6568C396.28842,959.1081,400.5123,967.03436,401.03842,967.3658C401.2817,967.51935,401.50742,968.0578,401.5867,968.5601C401.7988,970.10834,406.46005,972.7653,409.66928,973.14886C411.98636,973.4217,418.02158,972.64496,423.60617,971.415C424.48996,971.1799,426.98813,970.7188,429.08975,970.34686C431.192,969.9753,435.4266,968.91156,438.45847,968.05145C441.4758,967.1254,444.28458,966.3509,444.65488,966.3012C447.54855,965.75006,459.08804,961.0893,461.48935,959.4351C463.30557,958.2603,464.6901,955.7955,464.48874,954.14044C464.41605,953.35944,464.26468,950.5484,464.18423,947.8951C464.10416,945.24176,463.96158,942.7757,463.93826,942.3643C463.44608,938.6596,463.26907,934.8132,463.44174,932.2066C463.57077,930.4775,463.6033,928.6308,463.54947,928.0878C463.43015,927.5594,463.4935,926.92084,463.62137,926.7182C464.20883,925.7874,462.51956,915.72614,461.06638,911.3017C460.86618,910.72284,460.2747,908.8781,459.76932,907.25824C458.81784,904.2818,456.63834,900.02167,455.78836,899.4858C454.81644,898.87274,447.756,887.4604,445.97055,883.5621C445.21158,881.8952,444.47153,880.4665,444.30984,880.3647C444.1879,880.288,443.70016,879.35785,443.23715,878.3869C442.7595,877.3498,441.43747,874.4228,440.2559,871.81085C436.71127,863.97345,435.42136,861.8018,433.7471,860.689C433.09958,860.28107,430.86948,859.7795,428.77994,859.5937L428.7844,859.59625 Z"/>
</g>
<g style="fill:rgb(0,12,17); fill-opacity:1.0; stroke-linejoin: miter">
<path d="M364.0483,416.2636C355.07138,416.95892,344.87912,418.6938,336.89023,420.88837C333.4733,421.82343,329.1492,423.14764,327.1122,423.873C314.99942,428.17096,305.7562,432.68365,295.13437,439.46954C291.12558,442.03522,284.76266,446.7254,280.78177,450.05145C273.2134,456.36957,265.1523,464.6712,259.34354,472.10443C249.79233,484.3415,242.48807,497.2453,237.20053,511.21796C231.24081,526.9716,228.19278,542.7419,227.728,560.3212C227.647,563.49274,228.01462,573.5876,228.32211,576.63434C229.75278,590.608,232.40909,602.15424,237.03506,614.5131C243.07742,630.68854,251.85904,645.52423,263.26224,658.815C270.6633,667.44977,280.12912,676.11945,289.25797,682.62787C297.921,688.80914,305.8359,693.3471,315.4117,697.616C325.84842,702.2591,336.39627,705.5716,347.5887,707.69403C354.78683,709.065,362.70346,709.94354,369.7609,710.15314L371.01492,710.1934L371.3939,720.5948L371.77347,731.0079L368.60898,731.12396C366.19247,731.21124,365.2745,731.2941,364.7275,731.44904C362.23624,732.1785,360.2219,734.1923,359.4894,736.6751C359.1935,737.6562,359.19492,737.69293,359.30252,741.6562C359.3582,743.8525,361.02383,791.23566,362.98068,846.9605C366.11472,935.6431,366.57907,948.3875,366.76566,949.1297C367.0248,950.1766,367.84262,951.71893,368.5582,952.4787C369.23557,953.2032,370.24338,953.9036,371.24124,954.3215C372.8757,955.0235,372.31052,955.01984,389.2231,954.3664L404.63956,953.76776L405.44974,953.4189C406.65884,952.89606,407.52097,952.2874,408.3469,951.36053C409.1733,950.43414,409.61295,949.6934,410.0233,948.487L410.30038,947.66644L409.6669,927.9157C409.30753,917.0468,407.63266,869.4179,405.93137,822.0601L402.8425,735.95514L402.53073,735.15594C401.64944,732.87885,399.8696,731.22406,397.52072,730.46234C396.6382,730.17535,396.52737,730.1668,393.18997,730.2518L389.76608,730.32745L389.81174,729.2204C389.82602,728.6058,389.692,723.919,389.506,718.81683L389.16812,709.5444L391.34598,709.3173C393.85446,709.06635,396.9211,708.6231,400.7167,707.95636C403.31607,707.5057,404.04745,707.35626,407.6658,706.54865C417.814,704.2874,428.7769,700.44904,438.58945,695.7193C440.9556,694.5892,446.79904,691.4776,448.71042,690.35175C450.9468,689.02985,451.6675,688.5859,453.03622,687.7254C472.8696,675.21234,489.5275,658.1232,501.4825,638.0369C506.18063,630.1285,510.21848,621.61725,513.35474,612.97955C518.3656,599.1641,521.2826,584.5042,521.9424,569.9261C522.29956,561.86835,521.9907,553.3929,521.0405,545.518C517.5945,516.6711,505.57242,489.42645,486.52798,467.31293C474.9728,453.8924,461.06375,442.59674,445.74808,434.16473C433.15213,427.2298,420.71164,422.5373,406.33395,419.2785C403.1512,418.55963,397.84903,417.6474,393.98654,417.1491C391.43198,416.81256,390.1993,416.6856,386.2189,416.315C380.90707,415.82074,370.15994,415.7951,364.0483,416.2636 Z M379.30496,454.07538C390.97897,454.58356,401.48062,456.6324,412.24557,460.51398C424.97745,465.11005,436.6381,471.99286,446.90103,480.96515C448.82956,482.66302,448.94357,482.75726,450.95572,484.72284C455.83322,489.48236,459.5908,493.8405,463.56198,499.34552C474.106,514.00653,480.7795,530.982,483.09836,549.1115C483.7637,554.22076,484.14206,562.25165,483.95242,566.82733C483.38168,580.14935,480.98917,591.67084,476.34653,603.4589C468.4767,623.4085,454.41672,641.01666,436.6691,653.1346C421.37863,663.5909,403.8497,669.9161,385.33163,671.67194C382.77353,671.91266,374.96085,672.20953,372.69882,672.1446C369.0839,672.04266,365.50204,671.8295,363.2206,671.56854C362.57944,671.49384,361.49374,671.36163,360.81546,671.288C352.0707,670.26764,341.4044,667.41437,332.72348,663.7758C327.63516,661.65204,323.2429,659.4173,318.3456,656.4642C291.91318,640.56464,273.3881,613.82684,267.70932,583.3663C266.60977,577.4622,266.26852,574.1584,266.00638,566.9711C265.74954,559.9184,265.8315,557.1149,266.4719,551.0983C269.38058,523.7393,282.69186,498.40826,303.62546,480.36517C312.23495,472.95258,321.97568,466.92352,332.51126,462.48627C342.3575,458.3449,353.28598,455.58844,363.72598,454.5937C365.01108,454.4732,366.35782,454.35052,366.72495,454.31244C368.47488,454.1385,377.05423,453.9854,379.30496,454.07538 Z"/>
</g>
<g style="fill:rgb(255,177,147); fill-opacity:1.0; stroke-linejoin: miter">
<path d="M404.9761,976.7111L387.0499,926.58887Q387.54926,902.9408,386.45377,882.2241Q384.99698,865.95996,384.16223,863.70593Q383.05383,858.1665,381.35477,853.7128Q373.24295,834.3548,357.40125,840.5316Q344.631,847.3144,339.49548,872.65137Q334.16418,897.44476,331.91556,952.55505L404.9761,976.7111"/>
</g>
<g style="fill:rgb(255,177,147); fill-opacity:1.0; stroke-linejoin: miter">
<path d="M660.504,1307.7872L660.5041,1307.7886L660.50415,1307.7898L660.504,1307.7872"/>
</g>
<g>
<g style="fill:rgb(0,0,0); fill-opacity:1.0; stroke-linejoin: miter">
<path d="M434.77502,546.2495Q435.3461,546.22504,435.9246,546.22504Q439.43225,546.2251,442.8452,547.1731Q446.16333,548.02637,448.8178,550.0172Q451.4723,551.91327,453.08398,554.94696Q454.69562,557.8859,454.69562,561.9624Q454.69562,565.9442,453.08398,569.0727Q451.4723,572.10645,448.8178,574.192Q446.16333,576.2778,442.8452,577.41534Q440.00104,578.30927,437.01752,578.43695Q436.52036,578.45825,436.01935,578.45825Q432.41684,578.45825,429.00394,577.51025Q425.68582,576.56213,423.0313,574.5712Q420.37683,572.58044,418.76517,569.5467Q417.1535,566.51294,417.1535,562.3417Q417.15344,558.1703,418.76517,555.1366Q420.37683,552.1029,423.0313,550.11206Q425.591,548.1211,429.0039,547.1731Q431.78925,546.3773,434.77502,546.2495 Z M309.4514,536.2042Q306.09857,536.3477,303.0103,537.21875Q299.313,538.2616,296.5637,540.25244Q293.8144,542.14856,292.10794,544.8978Q290.49628,547.6471,290.49628,550.9652Q290.49628,554.94696,292.01315,557.7911Q293.53,560.54034,296.2793,562.3417Q298.9338,564.04816,302.6311,564.8065Q306.32843,565.56494,310.7842,565.565Q318.46326,565.56494,322.25543,566.6078Q325.95273,567.65063,325.95273,570.96875Q325.95273,574.9505,321.78137,576.94135Q318.1891,578.6559,312.62805,578.89386Q311.7317,578.93225,310.7842,578.93225Q307.4661,578.93225,305.09598,578.07904Q302.72592,577.3206,300.92465,576.08813Q299.2182,574.8557,297.89093,573.4337Q296.6585,572.0116,295.52087,570.8739L288.50543,577.98425Q292.58194,582.8192,298.45975,585.66327Q304.24277,588.4126,310.78418,588.4126Q311.78207,588.4126,312.75565,588.3709Q316.86923,588.1948,320.54892,587.2749Q325.0995,586.23206,328.51242,584.05164Q331.83054,581.966,333.7266,578.6478Q335.62268,575.42456,335.62268,570.96875Q335.62265,568.02985,334.76944,565.2805Q333.9162,562.53125,331.35654,560.44556Q328.7968,558.3599,323.96185,557.12744Q319.22168,555.895,311.4478,555.89496Q307.84528,555.895,305.66483,555.5158Q303.57916,555.1366,302.44153,554.47296Q301.39868,553.9042,301.01947,552.9561Q300.73505,552.1029,300.73505,550.9652Q300.73505,549.9224,301.68307,548.8796Q302.53632,547.9315,303.95837,547.1731Q305.3804,546.5095,307.18167,546.03546Q308.54492,545.73254,309.96863,545.67163Q310.3271,545.65625,310.6894,545.65625Q314.95554,545.65625,318.74765,546.60425Q322.445,547.5523,325.28912,549.92236L331.83054,542.33813Q326.42673,538.6408,321.30734,537.4083Q316.188,536.1759,310.7842,536.17596Q310.11264,536.1759,309.4514,536.2042 Z M352.68726,537.7876L352.68726,586.8957L393.1683,586.89575L393.16827,577.03613L362.35718,577.03613L362.3572,569.2623Q363.96887,568.4091,365.29608,567.8403Q366.62332,567.2715,368.235,566.98706Q369.84668,566.70264,372.12195,566.513Q372.1433,566.5121,372.16483,566.5111Q374.33594,566.4182,377.71533,566.4182L384.92038,566.4182L384.92038,556.6535L377.71533,556.65344Q376.11328,556.65344,374.5514,556.7203Q371.95398,556.8314,369.46744,557.12744Q365.5805,557.6015,362.35718,559.49756L362.35718,547.5523L391.367,547.5523L391.367,537.7876L352.68726,537.7876 Z M434.42413,536.2079Q429.71204,536.40955,425.2118,537.8823Q419.99762,539.5888,415.92108,542.907Q411.8445,546.2251,409.3796,551.06006Q406.91473,555.895,406.9148,562.152Q406.91473,568.4091,409.37964,573.33887Q411.7497,578.1738,415.82626,581.58673Q419.808,584.90485,425.0222,586.7061Q430.2364,588.4126,435.82977,588.4126Q436.56805,588.4126,437.30145,588.3812Q442.1239,588.17487,446.73212,586.6113Q451.9463,584.81,456.0229,581.39716Q460.00464,577.98425,462.46945,573.05444Q464.9344,568.1247,464.9344,561.8677Q464.93433,555.5158,462.46945,550.68085Q460.00458,545.8459,455.92807,542.62256Q451.94635,539.39923,446.63733,537.7876Q441.42313,536.1759,435.92456,536.1759Q435.1717,536.1759,434.42413,536.2079 Z"/>
</g>
</g>
<g style="fill:rgb(0,0,0); fill-opacity:1.0; stroke-linejoin: miter">
<path d="M138.48282,496.56824C137.03395,497.219,135.27908,499.04822,133.91782,501.35367C133.39879,502.1831,131.88506,504.32748,130.50404,506.1015C121.7723,517.30176,113.2035,524.08203,104.132645,526.9553C97.762505,528.9563,82.40093,530.40814,61.577305,530.9855C58.086857,531.0602,44.413715,530.8991,31.211212,530.5928C4.8391366,529.98175,4.6823373,530.0095,0.87292385,531.76227C-1.9303263,533.06683,-4.3807325,535.3156,-5.653375,537.7797L-6.7283263,539.8112L-6.9749384,546.44104C-7.3048024,555.2801,-6.877557,556.973,-3.4048738,560.3853C-1.8196701,561.9175,-0.28457618,562.8884,2.3683758,564.0093C3.817868,564.6012,4.843563,564.6865,19.756605,565.12524L35.571262,565.61774L35.353855,566.9209C35.24451,567.6359,33.975594,576.6716,32.5218,587.0118C31.066906,597.35333,29.311754,609.9295,28.603045,614.99164C27.186636,625.0223,26.946615,628.693,27.592337,630.3601C28.416311,632.43384,28.261404,632.3985,44.32875,632.7725C53.856426,632.9932,59.12156,632.9889,59.749123,632.78625C61.09922,632.3494,61.599953,630.8983,62.325302,625.1191C63.16194,618.59705,63.13301,618.53485,60.24597,618.02997C57.547764,617.53326,55.94312,615.534,55.73673,612.4149C55.66541,611.41595,56.4798,604.5179,57.892178,594.61145C59.12527,585.72864,60.506886,575.8544,60.956104,572.62335L61.774956,566.8175L63.924522,566.86804C72.579605,567.06775,95.250496,570.1466,101.2531,571.9376C104.74903,572.9844,109.981026,575.75354,113.50216,578.42084C119.16646,582.6944,125.87392,590.35724,130.80278,598.1689C133.47635,602.4363,134.56749,603.76935,136.04488,604.5214C137.46175,605.2392,139.51894,605.19226,141.15706,604.3892C142.79613,603.617,143.62862,602.60834,144.04121,600.93726C144.45262,599.3255,146.70418,502.05438,146.36891,500.4267C146.03273,498.79926,145.27814,497.75345,143.8324,496.973C142.13922,496.02917,140.05612,495.88733,138.48282,496.56824 Z"/>
</g>
<g style="fill:rgb(0,0,0); fill-opacity:1.0; stroke-linejoin: miter">
<path d="M168.34598,505.17126C166.33508,507.2434,163.84686,509.7711,162.79416,510.83765C160.27478,513.3647,159.78535,514.3185,160.35098,515.4539C160.86005,516.3678,162.06439,516.83215,162.9137,516.4468C163.60718,516.1197,163.54422,516.15063,168.07593,511.4575C170.02245,509.478,171.65053,507.77032,171.7459,507.68054C173.27492,506.25122,174.94423,504.11084,174.9565,503.58112C174.97957,502.58508,173.8832,501.49908,172.85622,501.47607C172.10954,501.4588,171.34633,502.0945,168.34598,505.17126 Z"/>
</g>
<g style="fill:rgb(0,0,0); fill-opacity:1.0; stroke-linejoin: miter">
<path d="M179.45135,526.0852C175.39815,527.5806,171.87468,529.0549,171.64977,529.3602C170.71828,530.5852,171.60524,532.5995,173.10051,532.6323C174.31483,532.663,189.02414,527.0864,189.38098,526.4709C190.25809,524.93286,189.39056,523.35443,187.70901,523.34827C187.20996,523.3372,183.50635,524.5595,179.45135,526.0852 Z"/>
</g>
<g style="fill:rgb(0,0,0); fill-opacity:1.0; stroke-linejoin: miter">
<path d="M176.4765,548.29034C174.81107,548.9371,174.81741,551.3373,176.51486,552.0308C176.94641,552.22925,180.80524,552.44275,185.22577,552.5451L193.16579,552.7286L193.9309,551.9669C194.88567,551.0833,194.96681,550.27594,194.18013,549.2928L193.60555,548.53326L185.38702,548.2797C180.8725,548.14374,176.88461,548.14465,176.4765,548.29034 Z"/>
</g>
<g style="fill:rgb(0,0,0); fill-opacity:1.0; stroke-linejoin: miter">
<path d="M170.96846,568.1614C170.17073,568.985,170.11507,570.0736,170.84492,570.838C171.14873,571.15576,174.7863,572.86145,178.91917,574.6411C185.76826,577.541,186.5092,577.807,187.32658,577.4838C188.33287,577.1016,188.76393,575.99,188.38695,574.7672C188.15358,574.0753,187.13759,573.553,180.56685,570.75464C176.40141,569.00653,172.69661,567.54834,172.32347,567.5067C171.95027,567.49915,171.35081,567.797,170.96846,568.1614 Z"/>
</g>
<g style="fill:rgb(0,0,0); fill-opacity:1.0; stroke-linejoin: miter">
<path d="M159.24133,583.5295C157.87213,584.8379,158.16342,585.6864,160.9883,588.80273C161.9907,589.9169,164.35896,592.55817,166.27312,594.689C169.12578,597.96423,169.85963,598.6052,170.60672,598.62256C171.10434,598.6341,171.79637,598.36835,172.14745,598.03546C173.38911,596.8509,173.06212,596.15765,168.81117,591.3519C166.62666,588.84143,164.1056,586.01025,163.25667,585.02466C161.34502,582.8619,160.35732,582.4662,159.24133,583.5295 Z"/>
</g>
<g style="fill:rgb(0,0,0); fill-opacity:1.0; stroke-linejoin: miter">
<path d="M337.54523,321.97894C333.80273,324.78595,329.13464,326.40967,324.10583,326.29315C319.2022,326.17975,314.71375,324.42938,311.1479,321.58063C299.2574,323.22015,289.97162,333.28094,289.68494,345.6681C289.36664,359.41943,300.71918,350.7376,314.4688,351.0569L334.55292,351.52332C348.30298,351.84058,359.24323,361.03802,359.5614,347.28687C359.86176,334.31616,350.1859,323.4361,337.54523,321.97894 Z"/>
</g>
<g style="fill:rgb(0,0,0); fill-opacity:1.0; stroke-linejoin: miter">
<path d="M324.1729,323.39545C334.48743,323.6349,343.07263,315.43677,343.3114,305.12103C343.55048,294.80682,335.354,286.21997,325.0395,285.98157C314.7246,285.74207,306.1385,293.93988,305.89984,304.25464C305.66187,314.57043,313.85907,323.15656,324.1729,323.39545 Z"/>
</g>
<g style="fill:rgb(0,0,0); fill-opacity:1.0; stroke-linejoin: miter">
<path d="M412.10626,326.62402C408.55194,329.2901,404.11786,330.83282,399.34113,330.7221C394.68323,330.61395,390.41974,328.95135,387.03278,326.24603C375.73865,327.80316,366.91864,337.35974,366.64594,349.12573C366.34363,362.18726,377.12714,353.94116,390.18713,354.24408L409.26422,354.68646C422.32532,354.98907,432.71613,363.72418,433.01843,350.6631C433.30396,338.34302,424.11346,328.00867,412.10626,326.62402 Z"/>
</g>
<g style="fill:rgb(0,0,0); fill-opacity:1.0; stroke-linejoin: miter">
<path d="M399.40454,327.97028C409.20178,328.19708,417.35663,320.41083,417.58337,310.61224C417.8103,300.8147,410.02496,292.65796,400.2276,292.43103C390.4301,292.2041,382.27515,299.99127,382.04773,309.7881C381.82208,319.58636,389.6078,327.7428,399.40454,327.97028 Z"/>
</g>
<g style="fill:rgb(0,0,0); fill-opacity:1.0; stroke-linejoin: miter">
<path d="M378.29425,251.5033C374.60938,254.26709,370.0133,255.86646,365.06195,255.75177C360.2337,255.63983,355.81464,253.91705,352.3037,251.1123C340.59686,252.72711,331.45404,262.6328,331.1715,274.82867C330.85828,288.36792,342.03613,279.82037,355.57397,280.13348L375.34814,280.59216C388.88635,280.90527,399.65735,289.96082,399.9709,276.42255C400.26666,263.65112,390.74036,252.93909,378.29425,251.5033 Z"/>
</g>
<g style="fill:rgb(0,0,0); fill-opacity:1.0; stroke-linejoin: miter">
<path d="M365.12793,252.8982C375.2834,253.13354,383.73596,245.06268,383.97125,234.90558C384.20642,224.74982,376.1363,216.29633,365.98126,216.06137C355.82538,215.82657,347.37195,223.8982,347.13672,234.05304C346.90204,244.21008,354.9732,252.66376,365.12793,252.8982 Z"/>
</g>
<g style="fill:rgb(0,0,0); fill-opacity:1.0; stroke-linejoin: miter">
<path d="M731.78485,518.6176C736.2592,518.6781,739.95105,518.75586,739.99133,518.79724C740.0319,518.83905,739.87085,519.56525,739.6396,520.4128C739.40845,521.2613,739.0623,522.4922,738.8743,523.176C738.6867,523.8462,738.2975,525.24066,738.0225,526.2531C737.73444,527.2638,737.24335,529.05536,736.9119,530.21875C736.3477,532.2975,735.8427,534.1025,735.43866,535.5246C735.3238,535.9196,735.19525,536.2751,735.1674,536.3161C735.08234,536.38617,722.72284,536.43567,719.50653,536.3923C719.03436,536.3867,718.7593,536.3779,718.7488,536.36786C718.7221,536.3251,718.7959,535.9428,718.91144,535.5038C719.02765,535.0661,720.0383,531.4152,721.1638,527.3955C722.2759,523.37476,723.22894,519.92773,723.2867,519.73676C723.33014,519.54517,723.4311,519.1899,723.5169,518.9439L723.66,518.5062 Z M717.46576,518.44604C718.3606,518.4579,718.9759,518.5066,719.04663,518.58014C719.1416,518.677,719.02344,519.2937,718.7053,520.46967C718.43134,521.4274,717.99786,523.00037,717.73755,523.9853C717.4769,524.95593,717.015,526.6246,716.7124,527.67737C716.1061,529.86536,715.5426,531.9446,715.32574,532.7382C715.25275,533.03937,714.9933,533.9693,714.74805,534.8171L714.3015,536.3331L712.6398,536.3929C711.7197,536.4218,708.15063,536.44226,704.7189,536.436C701.287,536.43054,695.645,536.4229,692.1863,536.43024L685.9125,536.426L686.0648,527.3141L686.2301,518.2018L700.7108,518.33075C708.671,518.39764,716.0281,518.457,717.0579,518.4432C717.19916,518.4435,717.3352,518.44434,717.46576,518.44604 Z M675.0488,518.00336C678.997,518.0576,681.9076,518.1235,681.90686,518.1689C681.93976,518.7875,681.6859,536.33997,681.64417,536.38086C681.5414,536.48114,664.48804,536.45447,658.403,536.37115C657.0969,536.3527,656.2961,536.3317,656.2773,536.3109C656.20935,536.2403,656.0386,535.6895,655.89545,535.0833C655.4287,533.11383,653.1393,523.8037,652.9431,523.10065C652.6038,521.8464,651.7076,518.1012,651.70984,517.9495C651.71204,517.7988,654.787,517.79865,672.4787,517.9725C673.3689,517.9816,674.2312,517.99286,675.0488,518.00336 Z M635.6349,517.6031C636.29663,517.6124,636.9828,517.62317,637.6854,517.6342L647.3739,517.80786L647.5942,518.7717C647.7106,519.29474,648.0221,520.6038,648.2822,521.6649C648.5564,522.7239,648.998,524.5155,649.27057,525.6589C649.55725,526.7884,650.2594,529.66705,650.84485,532.03503C651.42993,534.405,651.8836,536.36127,651.85547,536.3872C651.77454,536.4674,638.39575,536.4596,633.9238,536.398C633.0393,536.3865,632.5038,536.3717,632.4879,536.35614C632.43317,536.314,632.25037,535.65186,632.0823,534.8962C631.9006,534.1378,631.6153,532.9263,631.43274,532.2095C630.44293,528.27136,629.70166,525.2675,629.10315,522.85645C628.75256,521.36957,628.3102,519.6056,628.1407,518.9309C627.9856,518.24243,627.87024,517.6517,627.91223,517.58325C627.9487,517.5358,631.26587,517.54407,635.6349,517.6031 Z M713.077,540.58624L712.9728,541.1743C712.91345,541.50336,712.76843,542.03705,712.6545,542.37805C712.5399,542.71967,711.8326,545.26337,711.06696,548.05316C708.84216,556.2051,708.40894,557.79083,707.47,561.1814C707.16736,562.2348,706.86383,563.3696,706.76294,563.7113L706.60376,564.32825L685.6047,564.04333L685.72266,552.3607L685.8552,540.6674L689.7264,540.63885C691.86804,540.625,697.016,540.60077,701.1614,540.60254C705.3208,540.60376,709.6865,540.5958,710.8942,540.59814L713.077,540.58624 Z M652.12067,540.6113C652.5641,540.61816,652.79376,540.66656,652.88086,540.76764C653.0292,540.9476,653.4857,542.7249,655.31836,550.2439C655.86444,552.4754,656.4244,554.707,656.5549,555.2025C656.6992,555.69946,656.8689,556.34686,656.9331,556.6488C656.99774,556.9519,657.4005,558.63104,657.843,560.3815C658.27234,562.1303,658.6365,563.60425,658.63586,563.6595C658.6351,563.6931,655.66113,563.67786,651.6101,563.6222C650.7381,563.6098,649.81604,563.5972,648.86304,563.5814L639.0921,563.40656L638.7284,561.8913C638.52014,561.0514,638.1565,559.564,637.9087,558.5862C637.4147,556.562,636.8555,554.27484,636.34796,552.2503C633.9792,542.718,633.5375,540.8729,633.6221,540.7502C633.6776,540.66974,635.2433,540.6216,637.57654,540.6538C641.69434,540.6824,650.13684,540.661,651.75745,540.6139C651.89166,540.6104,652.01306,540.609,652.12067,540.6113 Z M681.57355,540.5662L681.60944,540.9518C681.6466,541.25366,681.34235,563.5435,681.29614,563.9409C681.28143,564.0092,677.17676,563.99506,672.1676,563.927L663.05457,563.8025L662.84393,563.1403C662.7389,562.7816,661.6457,558.40076,660.4229,553.4021C659.18713,548.4034,657.9912,543.51404,657.7577,542.52185C657.5101,541.5432,657.3428,540.7181,657.3711,540.69116C657.42645,540.62317,661.792,540.5998,672.40295,540.62115C676.219,540.6181,679.8433,540.6118,680.4474,540.5924L681.57355,540.5662 Z M731.3564,540.5939C733.00336,540.61664,733.9246,540.6702,733.96783,540.74725C734.00793,540.81604,733.9914,540.9942,733.9077,541.1171C733.8372,541.2534,733.7507,541.54,733.70624,541.77295C733.66223,541.9923,733.4598,542.7722,733.2576,543.48364C732.4212,546.42236,731.8298,548.54193,731.512,549.70557C731.32404,550.3749,730.9344,551.7972,730.6451,552.8503C730.3426,553.9027,729.8516,555.68097,729.534,556.8153C728.9422,558.9358,728.78314,559.5369,727.9316,562.587C727.65765,563.57074,727.38477,564.4449,727.32825,564.5273C727.2723,564.6364,724.74646,564.64294,719.1473,564.5666C711.5437,564.46265,711.06354,564.4439,711.06635,564.2094C711.06903,564.0047,713.4392,555.30597,715.4599,548.04565C715.6469,547.4031,716.1529,545.529,716.61487,543.887C717.063,542.2324,717.50806,540.7972,717.5917,540.70325C717.70337,540.5665,718.6922,540.53864,721.8764,540.555C724.1413,540.5584,727.77905,540.5814,729.9476,540.58246C730.4633,540.5836,730.9339,540.58826,731.3564,540.5939 Z M707.3921,598.31586C708.2727,598.3286,709.1505,598.42865,709.85547,598.6219C713.30176,599.5466,715.9984,602.1093,717.1997,605.6265C717.50305,606.5229,717.54016,606.826,717.5138,608.7468C717.5011,610.75134,717.47095,610.9294,717.0863,611.96704C716.72974,612.93634,716.5177,613.35834,715.91327,614.40894C715.57605,614.9933,714.406,616.21173,713.5182,616.9011C712.46356,617.7242,711.054,618.41907,709.7733,618.74335C709.1456,618.9055,708.126,618.9778,707.1085,618.9628C706.07007,618.94855,705.0349,618.8455,704.4208,618.6569C702.001,617.93713,699.718,616.204,698.4155,614.11365C696.34717,610.7497,696.37933,606.3577,698.5106,603.0924C700.011,600.79315,702.2423,599.1899,704.83185,598.56635C705.5614,598.3877,706.47815,598.30444,707.3921,598.31586 Z M652.3054,597.55994C653.1459,597.57043,653.9792,597.6775,654.7503,597.8837C657.45874,598.60626,659.74146,600.3539,661.13586,602.761C664.52893,608.6546,661.3929,616.148,654.7794,617.9376C654.0331,618.1453,653.04297,618.2389,652.04315,618.22516C651.01184,618.21,649.97144,618.08264,649.1802,617.84875C644.3401,616.4233,641.05994,611.3411,641.83984,606.4912C642.4097,602.9184,644.4378,600.1721,647.72797,598.51483C649.01434,597.87054,650.6734,597.5376,652.3054,597.55994 Z M619.96387,491.43677C619.30676,491.42755,618.33405,491.43005,616.8889,491.4342C614.4589,491.44238,609.6132,491.45825,606.14026,491.45142C605.0386,491.4489,604.1219,491.44928,603.3592,491.44702L603.36053,491.4478L603.2735,497.82593L603.2735,497.82635C604.6762,497.8236,606.8321,497.83295,609.183,497.84845L616.3344,497.89197L617.36255,502.02338C617.9215,504.29688,618.65015,507.2445,618.9752,508.56586C619.2999,509.88818,619.74243,511.6922,619.96423,512.56006C620.17163,513.42816,620.48413,514.6945,620.65314,515.38336C620.82245,516.0587,621.3168,518.0421,621.74603,519.7914C622.57886,523.152,623.9317,528.6203,626.4421,538.79956C626.63684,539.6261,626.98804,541.0307,627.19604,541.89777C627.4173,542.7659,627.74304,544.0743,627.91174,544.79095C628.83563,548.4961,631.34625,558.6461,631.85376,560.6988C632.17975,561.981,633.1917,566.264,634.126,570.20184C635.04694,574.14215,635.86487,577.58307,635.92993,577.845C636.0084,578.108,636.59216,580.61383,637.22644,583.423C637.8752,586.21814,638.44446,588.73816,638.5232,589.00073C638.5884,589.26263,638.9387,590.77594,639.30115,592.37274C639.6636,593.95703,640.0137,595.47174,640.079,595.7337C640.1831,596.161,640.15454,596.2432,639.40125,597.11163C636.3184,600.6796,634.8484,605.82007,635.60895,610.4286C635.9386,612.4254,636.228,613.3487,637.06903,615.12933C639.10925,619.49677,643.1537,622.8598,647.8723,624.1308C649.1609,624.4811,650.4878,624.65955,651.8165,624.67694C656.6041,624.7418,661.4185,622.7307,664.60547,619.1302C667.3939,615.9702,668.8164,612.32336,668.8727,608.1516C668.9181,604.84357,668.04114,601.7161,666.2673,598.94556C665.8911,598.352,665.5824,597.8386,665.58264,597.8118C665.5834,597.7708,672.0067,597.8311,679.85657,597.9388C687.7073,598.0445,694.1301,598.1735,694.129,598.2289C694.1279,598.2965,693.8617,598.7049,693.5398,599.15393C692.2522,600.97626,691.2313,603.4063,690.78613,605.82886C690.431,607.6768,690.51544,610.5888,690.9835,612.4885C692.167,617.3096,695.0938,621.12537,699.41315,623.43475C701.82434,624.7435,704.2313,625.35425,707.04346,625.3932C707.07623,625.39294,707.1095,625.39215,707.1427,625.3937C709.9835,625.41943,711.89746,624.9921,714.57776,623.7374C721.6243,620.41614,725.41315,612.4104,723.5533,604.7795C722.0582,598.6517,717.37225,593.9736,711.09375,592.37897C710.1224,592.1319,708.3248,592.0791,677.8567,591.59625C660.1527,591.3127,645.6333,591.061,645.60657,591.01886C645.55225,590.9634,643.89136,583.89825,642.90686,579.5881C642.3762,577.2472,641.1166,571.9318,640.88245,571.0083C640.7785,570.56793,640.7162,570.1138,640.7588,570.0034C640.8297,569.8392,647.2264,569.90027,686.5058,570.4358L732.1812,571.0609L733.0333,567.9411C734.40594,562.95026,735.027,560.70734,736.0218,557.17993C736.2392,556.3448,736.7161,554.62146,737.0764,553.3498C737.42316,552.06494,737.8562,550.5326,738.0295,549.93066C738.1884,549.32947,739.05383,546.2526,739.92035,543.09515C740.8007,539.93506,741.63855,536.9136,741.7828,536.39307C741.92737,535.8611,742.24457,534.72614,742.49005,533.8638C742.7211,533.0023,743.4143,530.4991,744.02057,528.32385C744.6268,526.1369,745.2767,523.79816,745.4641,523.1274C745.6522,522.4433,746.0418,521.03424,746.3316,519.98114C746.6337,518.9283,747.21124,516.8083,747.64435,515.27734L748.40985,512.4882L711.53064,512.0674C691.2451,511.8449,663.7809,511.55273,650.48096,511.42578C644.37134,511.3648,639.2781,511.30566,635.3627,511.25256C629.4875,511.17188,626.2629,511.10315,626.2306,511.0537C626.1635,510.92926,625.4857,508.28412,624.54865,504.52368C624.34094,503.65533,623.99023,502.22278,623.76855,501.35516C623.5608,500.4879,623.2488,499.2079,623.0797,498.53247C622.70325,496.9477,621.46655,492.00403,621.37476,491.6742C621.32324,491.5105,621.2112,491.4535,619.96387,491.43677 Z"/>
</g>
<g style="fill:rgb(0,0,0); fill-opacity:1.0; stroke-linejoin: miter">
<path d="M68.911064,452.9127L68.91103,452.91397C84.26657,417.9986,105.70942,386.42966,131.86209,359.51163L147.04437,374.26215C122.6234,399.39764,102.61257,428.8642,88.28744,461.43393 Z"/>
</g>
<g style="fill:rgb(0,0,0); fill-opacity:1.0; stroke-linejoin: miter">
<path d="M139.8925,351.5342L139.89246,351.5361C167.0175,325.52777,198.7388,304.3054,233.67839,289.19226L242.08186,308.62042C209.484,322.7208,179.87152,342.52902,154.54202,366.81396 Z"/>
</g>
<g style="fill:rgb(0,0,0); fill-opacity:1.0; stroke-linejoin: miter">
<path d="M486.9536,289.87933L486.95355,289.8814C521.88196,305.20587,553.46747,326.6218,580.40674,352.7504L565.6696,367.9442C540.51434,343.54706,511.03134,323.56055,478.44836,309.26315 Z"/>
</g>
<g style="fill:rgb(0,0,0); fill-opacity:1.0; stroke-linejoin: miter">
<path d="M588.39105,360.77353L588.391,360.7756C614.42255,387.8784,635.67035,419.5806,650.81366,454.5063L631.39294,462.9265C617.2638,430.3402,597.43225,400.7465,573.12384,375.43625 Z"/>
</g>
<g style="fill:rgb(0,0,0); fill-opacity:1.0; stroke-linejoin: miter">
<path d="M734.31885,518.2032C738.7933,518.2625,742.4848,518.341,742.52527,518.3826C742.566,518.4244,742.40497,519.1506,742.17365,519.9979C741.9423,520.84595,741.5963,522.07733,741.40826,522.7616C741.22076,523.4311,740.83136,524.8265,740.5566,525.83844C740.2685,526.8492,739.7772,528.64056,739.44574,529.80286C738.88165,531.88153,738.3765,533.68713,737.9726,535.1099C737.85785,535.50476,737.7296,535.86066,737.7015,535.9017C737.61664,535.9719,725.25714,536.0212,722.04065,535.9778C721.5683,535.9712,721.29315,535.9638,721.2829,535.9526C721.25616,535.9107,721.33014,535.5275,721.4456,535.08966C721.56134,534.6522,722.57245,531.001,723.69745,526.9802C724.80994,522.9601,725.76306,519.5133,725.82086,519.3227C725.86444,519.13074,725.965,518.7754,726.0511,518.52924L726.19403,518.092 Z M719.99994,518.0314C720.8947,518.04364,721.50995,518.09216,721.5809,518.1651C721.6758,518.26276,721.5575,518.8793,721.2392,520.0546C720.96533,521.0124,720.532,522.5862,720.2718,523.57043C720.01117,524.5415,719.54913,526.21027,719.2464,527.26294C718.6399,529.45013,718.0764,531.5297,717.85956,532.32306C717.7867,532.6242,717.52704,533.55444,717.28186,534.4022L716.8357,535.91864L715.174,535.9792C714.254,536.0082,710.6847,536.02795,707.2527,536.02136C703.82117,536.0161,698.179,536.00745,694.72034,536.0158L688.4469,536.01276L688.59863,526.9003L688.76434,517.78796L703.24475,517.91565C711.2051,517.9835,718.5622,518.04224,719.5921,518.02875C719.7333,518.02875,719.8695,518.03015,719.99994,518.0314 Z M677.58276,517.58936C681.5315,517.64233,684.4418,517.709,684.4408,517.75464C684.4738,518.3727,684.22,535.9259,684.17834,535.96643C684.0753,536.0669,667.022,536.03906,660.937,535.95715C659.631,535.93866,658.82996,535.9177,658.81104,535.89606C658.7434,535.826,658.57275,535.2745,658.42957,534.6687C657.9625,532.6994,655.6736,523.38885,655.47736,522.6862C655.1378,521.43176,654.24146,517.68616,654.24335,517.53485C654.2459,517.3844,657.32104,517.3848,675.0127,517.5574C675.90283,517.567,676.7649,517.57794,677.58276,517.58936 Z M638.1691,517.1891C638.83057,517.1988,639.5167,517.20905,640.2195,517.2198L649.90796,517.3938L650.12836,518.3574C650.2445,518.8803,650.5564,520.18933,650.8164,521.25037C651.09015,522.3093,651.53217,524.1003,651.8047,525.2444C652.0913,526.3737,652.79346,529.2526,653.379,531.62103C653.96375,533.9908,654.41766,535.946,654.3895,535.9726C654.3085,536.053,640.9297,536.0457,636.4579,535.98334C635.57336,535.97046,635.0376,535.9565,635.022,535.9415C634.96716,535.89935,634.7843,535.23663,634.6161,534.4806C634.4343,533.72314,634.1488,532.51154,633.96674,531.79443C632.9769,527.8564,632.23553,524.8533,631.63715,522.4428C631.2866,520.9554,630.84436,519.19135,630.67474,518.5167C630.51965,517.82837,630.40405,517.23724,630.4462,517.169C630.483,517.1214,633.79987,517.1293,638.1691,517.1891 Z M715.61127,540.1712L715.50696,540.7601C715.4475,541.0885,715.30255,541.62177,715.18823,541.96356C715.074,542.3054,714.3667,544.8491,713.6008,547.6383C711.3761,555.7908,710.9431,557.3765,710.004,560.76697C709.70135,561.82074,709.3979,562.95557,709.2969,563.2967L709.13776,563.9126L688.13855,563.62744L688.2567,551.9462L688.3894,540.2532L692.2604,540.22314C694.40234,540.21094,699.55005,540.1865,703.6954,540.18805C707.855,540.1896,712.22015,540.18054,713.42804,540.1835L715.61127,540.1712 Z M654.6546,540.1969C655.09827,540.20374,655.32794,540.25214,655.4148,540.35236C655.5634,540.53314,656.0198,542.3099,657.8524,549.82837C658.3987,552.0606,658.95856,554.2933,659.0891,554.78705C659.2335,555.284,659.4028,555.9314,659.4673,556.2351C659.53186,556.5375,659.9345,558.2174,660.377,559.96594C660.8061,561.71545,661.1707,563.18964,661.1699,563.24506C661.1692,563.2781,658.1954,563.26324,654.14435,563.20795C653.27234,563.1951,652.3502,563.18317,651.3972,563.1672L641.62604,562.9925L641.2622,561.47644C641.054,560.6359,640.6901,559.14935,640.44244,558.1711C639.94855,556.14667,639.3895,553.8606,638.8822,551.8365C636.5133,542.30316,636.07166,540.45905,636.156,540.3357C636.2116,540.2547,637.7772,540.2071,640.11035,540.23895C644.2284,540.2671,652.6709,540.24554,654.29156,540.19965C654.4258,540.19635,654.5471,540.1946,654.6546,540.1969 Z M684.10767,540.1518L684.1437,540.5373C684.1808,540.8392,683.8766,563.12805,683.8302,563.5267C683.8153,563.59503,679.71094,563.5803,674.70154,563.5127L665.5885,563.38727L665.3777,562.7259C665.2728,562.36755,664.17993,557.9867,662.957,552.9877C661.72107,547.98895,660.52515,543.09894,660.2915,542.10724C660.04395,541.1287,659.8767,540.30347,659.9049,540.27545C659.96027,540.2077,664.32605,540.18494,674.9369,540.20593C678.7529,540.20386,682.37744,540.1974,682.98157,540.17816L684.10767,540.1518 Z M733.8903,540.179C735.5374,540.20154,736.4587,540.2559,736.5015,540.3334C736.54205,540.402,736.52545,540.57996,736.4417,540.70306C736.3713,540.8389,736.2846,541.126,736.2403,541.3587C736.1963,541.57806,735.9939,542.3582,735.7917,543.0692C734.95514,546.00836,734.3637,548.1277,734.04614,549.2911C733.858,549.9601,733.46844,551.38275,733.17914,552.4356C732.8766,553.48785,732.38556,555.2667,732.0681,556.40063C731.47626,558.5212,731.31726,559.1225,730.46564,562.17285C730.19147,563.1563,729.9185,564.03125,729.86237,564.11316C729.806,564.22156,727.2807,564.2285,721.6812,564.1524C714.07776,564.04803,713.59753,564.0295,713.60046,563.7956C713.603,563.59015,715.9733,554.8909,717.9939,547.6306C718.1805,546.9877,718.687,545.11456,719.14886,543.47253C719.5972,541.81757,720.0422,540.38275,720.1258,540.28784C720.2375,540.1521,721.2262,540.12415,724.4105,540.1407C726.6756,540.14435,730.3129,540.1662,732.4814,540.168C732.99725,540.1689,733.4677,540.17285,733.8903,540.179 Z M709.926,597.9012C710.8069,597.9129,711.6846,598.01416,712.3895,598.2082C715.8357,599.13214,718.5325,601.69446,719.73364,605.2122C720.0371,606.1081,720.0742,606.4108,720.0478,608.33167C720.03485,610.33624,720.0048,610.5137,719.62036,611.552C719.2637,612.5221,719.0518,612.94366,718.4474,613.9933C718.10986,614.57916,716.9401,615.7981,716.0521,616.48645C714.99756,617.3085,713.5881,618.0042,712.3075,618.32965C711.67957,618.4908,710.6599,618.56226,709.6424,618.5483C708.60425,618.53406,707.5689,618.43164,706.95496,618.2425C704.5347,617.52234,702.25226,615.7903,700.94934,613.69965C698.8812,610.33545,698.9133,605.9419,701.0447,602.67865C702.54504,600.3782,704.7764,598.7751,707.366,598.15234C708.0952,597.97327,709.0123,597.8892,709.926,597.9012 Z M654.8396,597.1449C655.67993,597.156,656.5133,597.2624,657.2844,597.4688C659.9928,598.19196,662.2755,599.93896,663.6699,602.34735C667.0627,608.2404,663.9267,615.7335,657.31335,617.524C656.56726,617.7317,655.5769,617.82324,654.57715,617.81067C653.546,617.7956,652.5055,617.6676,651.71387,617.4339C646.87415,616.00964,643.59406,610.92664,644.3738,606.0762C644.9439,602.5037,646.9718,599.7581,650.26196,598.1004C651.54834,597.45514,653.2075,597.1224,654.8396,597.1449 Z M622.4979,491.02148C621.8408,491.01288,620.86816,491.01538,619.423,491.01978C616.99304,491.0279,612.14716,491.0429,608.6742,491.03674C607.5724,491.0345,606.65576,491.03503,605.8931,491.0327L605.8947,491.034L605.8073,497.41132L605.8073,497.41193C607.21027,497.40857,609.36615,497.41772,611.7172,497.43414L618.86804,497.47736L619.8967,501.6093C620.4557,503.8824,621.1843,506.82965,621.5092,508.15143C621.8341,509.47388,622.2765,511.278,622.4984,512.1456C622.7057,513.0137,623.0183,514.27985,623.18713,514.96893C623.35645,515.6438,623.8507,517.6272,624.2799,519.3767C625.1129,522.73694,626.46576,528.2062,628.976,538.3851C629.17053,539.2116,629.5217,540.6163,629.72986,541.4829C629.95123,542.3511,630.277,543.65985,630.44556,544.3757C631.3696,548.0823,633.8804,558.2324,634.3877,560.2841C634.7136,561.56647,635.7256,565.8495,636.66016,569.7874C637.58105,573.7275,638.3989,577.16846,638.46387,577.43036C638.54254,577.69257,639.12616,580.1994,639.7605,583.0087C640.4087,585.8031,640.9782,588.3227,641.0571,588.5857C641.1221,588.8476,641.47253,590.36145,641.8351,591.9591C642.1974,593.5416,642.5476,595.05725,642.6129,595.3194C642.71704,595.74554,642.68823,595.8295,641.9352,596.6973C638.85254,600.2648,637.3823,605.40546,638.14294,610.0138C638.4728,612.0097,638.76196,612.9329,639.60297,614.71545C641.64307,619.08167,645.6877,622.4445,650.4064,623.7164C651.69507,624.06647,653.02185,624.24414,654.3503,624.26245C659.13794,624.3282,663.95264,622.3161,667.1396,618.71515C669.92816,615.5557,671.3505,611.9085,671.40686,607.7366C671.452,604.4291,670.5753,601.3021,668.8013,598.53064C668.4252,597.93756,668.1164,597.4235,668.1166,597.3963C668.1173,597.3549,674.5408,597.41644,682.3906,597.5228C690.2414,597.63104,696.6644,597.7593,696.6631,597.81525C696.66223,597.8829,696.3959,598.29065,696.0737,598.7393C694.7861,600.56226,693.76495,602.99023,693.3198,605.414C692.9652,607.2622,693.0497,610.1752,693.5176,612.0749C694.7008,616.89435,697.6279,620.71094,701.94714,623.02106C704.3584,624.3299,706.76544,624.9398,709.5776,624.977C709.61017,624.9778,709.64343,624.9771,709.6767,624.9785C712.5177,625.0048,714.4314,624.5768,717.112,623.3225C724.15826,620.00104,727.94696,611.9957,726.0871,604.36505C724.5923,598.2356,719.90625,593.55914,713.6278,591.9635C712.6564,591.7174,710.8588,591.66437,680.39087,591.1816C662.68665,590.89825,648.1676,590.6463,648.14075,590.60425C648.0863,590.54956,646.4255,583.4838,645.4407,579.173C644.9103,576.83215,643.65063,571.51715,643.41644,570.59424C643.31244,570.1529,643.2502,569.6993,643.2928,569.5894C643.3638,569.42474,649.76056,569.48663,689.0399,570.0221L734.71497,570.64624L735.5675,567.5267C736.93964,562.5357,737.56085,560.2936,738.5562,556.76447C738.77325,555.93005,739.2503,554.20636,739.61053,552.93567C739.95734,551.6505,740.3901,550.11835,740.5634,549.51605C740.7225,548.91504,741.5878,545.8383,742.4543,542.67944C743.33484,539.5206,744.1724,536.49854,744.31683,535.97845C744.4614,535.44556,744.7786,534.3105,745.024,533.44977C745.25494,532.5872,745.9483,530.0846,746.55475,527.90936C747.1608,525.72205,747.8107,523.38306,747.9982,522.7131C748.18616,522.0289,748.57574,520.6194,748.8654,519.5667C749.16766,518.5137,749.7453,516.39386,750.1783,514.86285L750.94415,512.0731L714.0647,511.65277C693.77905,511.4303,666.3151,511.13794,653.0149,511.0113C646.9055,510.95068,641.812,510.8907,637.8968,510.83746C632.0217,510.75677,628.79694,510.68866,628.7644,510.63885C628.6975,510.51465,628.01984,507.8689,627.08276,504.109C626.8752,503.2411,626.5242,501.80835,626.30273,500.94073C626.09485,500.0736,625.7827,498.79285,625.6135,498.1178C625.2375,496.53308,624.00037,491.58875,623.9088,491.2594C623.85706,491.0952,623.74524,491.0382,622.4979,491.02148 Z"/>
</g>
<g style="fill:rgb(255,255,255); fill-opacity:1.0; stroke-linejoin: miter">
<path d="M404.0254,1108.9553L497.9948,1108.9558L591.96423,1108.9563Q591.96423,1133.3237,591.96423,1157.691Q497.9948,1157.6915,404.0254,1157.692Q404.0254,1133.3237,404.0254,1108.9553"/>
</g>
<g style="fill:rgb(0,0,0); fill-opacity:1.0; stroke-linejoin: miter">
<path d="M396.68082,1284.4436L612.43164,1287.1201L614.1199,1151.1228L614.2284,1142.3582L398.47604,1139.6802L396.68082,1284.4436 Z"/>
</g>
</g>
</svg>