<?xml version="1.0" encoding="UTF-8"?>
<svg width="1920" height="4059" version="1.1" viewBox="0 0 1920.0005 4059.0122" xmlns="http://www.w3.org/2000/svg" xmlns:xlink="http://www.w3.org/1999/xlink">
 <defs>
  <linearGradient id="k" x1="73.614" x2="99.445" gradientTransform="matrix(.081398 0 0 .081398 6.583 709.71)" gradientUnits="userSpaceOnUse">
   <stop stop-color="#4f4f51" offset="0"/>
   <stop stop-color="#515153" offset=".2693"/>
   <stop stop-color="#57575a" offset=".3663"/>
   <stop stop-color="#616264" offset=".4355"/>
   <stop stop-color="#6e7072" offset=".4914"/>
   <stop stop-color="#7f8183" offset=".5393"/>
   <stop stop-color="#939597" offset=".5809"/>
   <stop stop-color="#a7a9ac" offset=".6129"/>
   <stop stop-color="#8e9092" offset=".6871"/>
   <stop stop-color="#606163" offset=".8343"/>
   <stop stop-color="#3d3c3e" offset=".9428"/>
   <stop stop-color="#1e1e1f" offset="1"/>
  </linearGradient>
  <linearGradient id="l" x1="98.948" x2="99.011" gradientTransform="matrix(.081398 0 0 .081398 6.583 709.71)" gradientUnits="userSpaceOnUse">
   <stop stop-color="#4f4f51" offset="0"/>
   <stop stop-color="#515153" offset=".2693"/>
   <stop stop-color="#57575a" offset=".3663"/>
   <stop stop-color="#616264" offset=".4355"/>
   <stop stop-color="#6e7072" offset=".4914"/>
   <stop stop-color="#7f8183" offset=".5393"/>
   <stop stop-color="#939597" offset=".5809"/>
   <stop stop-color="#a7a9ac" offset=".6129"/>
   <stop stop-color="#8e9092" offset=".6871"/>
   <stop stop-color="#606163" offset=".8343"/>
   <stop stop-color="#3d3c3e" offset=".9428"/>
   <stop stop-color="#1e1e1f" offset="1"/>
  </linearGradient>
  <linearGradient id="m" x1="83.393" x2="90.081" y1="22.072" y2="27.947" gradientTransform="matrix(.081398 0 0 .081398 6.583 709.71)" gradientUnits="userSpaceOnUse">
   <stop stop-color="#222223" offset="0"/>
   <stop stop-color="#272728" offset=".4812"/>
   <stop stop-color="#353536" offset=".6546"/>
   <stop stop-color="#464647" offset=".7781"/>
   <stop stop-color="#555658" offset=".878"/>
   <stop stop-color="#67696b" offset=".9626"/>
   <stop stop-color="#717375" offset="1"/>
  </linearGradient>
  <radialGradient id="n" cx="87.146" cy="24.98" r="2.0836" gradientTransform="matrix(.081398 0 0 .081398 6.583 709.71)" gradientUnits="userSpaceOnUse">
   <stop stop-color="#00062f" offset="0"/>
   <stop stop-color="#000830" offset=".2232"/>
   <stop stop-color="#000f34" offset=".4278"/>
   <stop stop-color="#00173b" offset=".6249"/>
   <stop stop-color="#012143" offset=".8164"/>
   <stop stop-color="#212d4e" offset="1"/>
  </radialGradient>
  <radialGradient id="o" cx="86.082" cy="25.369" r=".4952" gradientTransform="matrix(.081398 0 0 .081398 6.583 709.71)" gradientUnits="userSpaceOnUse">
   <stop stop-color="#39bced" offset="0"/>
   <stop stop-color="#0076a4" offset=".3637"/>
   <stop stop-color="#00062f" offset="1"/>
  </radialGradient>
  <radialGradient id="p" cx="87.688" cy="24.312" r=".8706" gradientTransform="matrix(.081398 0 0 .081398 6.583 709.71)" gradientUnits="userSpaceOnUse">
   <stop stop-color="#39bced" offset="0"/>
   <stop stop-color="#0076a4" offset=".3637"/>
   <stop stop-color="#00062f" offset="1"/>
  </radialGradient>
  <radialGradient id="q" cx="86.364" cy="24.351" r=".7308" gradientTransform="matrix(.081398 0 0 .081398 6.583 709.71)" gradientUnits="userSpaceOnUse">
   <stop stop-color="#24132e" offset="0"/>
   <stop stop-color="#261732" offset=".3463"/>
   <stop stop-color="#2e213b" offset=".6634"/>
   <stop stop-color="#3a2f4a" offset=".9683"/>
   <stop stop-color="#3b304c" offset="1"/>
  </radialGradient>
  <radialGradient id="r" cx="81.793" cy="309.83" r="13.316" gradientTransform="matrix(.081398 0 0 .081398 6.583 709.71)" gradientUnits="userSpaceOnUse">
   <stop stop-color="#abadb0" offset="0"/>
   <stop stop-color="#9fa1a3" offset=".1017"/>
   <stop stop-color="#8d8f91" offset=".2907"/>
   <stop stop-color="#808285" offset=".493"/>
   <stop stop-color="#797b7d" offset=".7161"/>
   <stop stop-color="#77787b" offset="1"/>
  </radialGradient>
  <linearGradient id="s" x1="130" x2="130" y1="292.3" y2="170.18" gradientTransform="matrix(.081398 0 0 .081398 -9.5328e-7 .00099334)" gradientUnits="userSpaceOnUse">
   <stop stop-color="#CB1517" offset="0"/>
   <stop stop-color="#B81818" offset=".618"/>
   <stop stop-color="#B31917" offset=".6292"/>
   <stop stop-color="#BF2358" offset=".9831"/>
  </linearGradient>
  <linearGradient id="t" x1="130" x2="130" y1="292.3" y2="170.18" gradientTransform="matrix(.081398 0 0 .081398 -9.5328e-7 .00099334)" gradientUnits="userSpaceOnUse">
   <stop stop-color="#AD1917" stop-opacity=".22" offset="0"/>
   <stop stop-color="#8A1812" offset=".5"/>
   <stop stop-color="#8D1B16" stop-opacity=".9825" offset=".51"/>
   <stop stop-color="#9E2B29" stop-opacity=".8862" offset=".5654"/>
   <stop stop-color="#AD393F" stop-opacity=".7845" offset=".6238"/>
   <stop stop-color="#B94652" stop-opacity=".6785" offset=".6848"/>
   <stop stop-color="#C35163" stop-opacity=".5665" offset=".7491"/>
   <stop stop-color="#CA5A6F" stop-opacity=".4459" offset=".8184"/>
   <stop stop-color="#CE5F77" stop-opacity=".3106" offset=".8962"/>
   <stop stop-color="#CF6079" stop-opacity=".13" offset="1"/>
  </linearGradient>
 </defs>
 <g transform="translate(881.86 1864.3)">
  <g transform="matrix(12.285 0 0 12.285 -881.86 -1864.3)">
   <path transform="translate(-6.583 -709.71)" d="m138.58 713.77c0 0.55-0.45 1-1 1h-23.313c-0.55 0-1-0.45-1-1v-3.062c0-0.55 0.45-1 1-1h23.313c0.55 0 1 0.45 1 1v3.062z" fill="#666"/>
   <path transform="translate(-6.583 -709.71)" d="m12.333 770.73c0 0.55-0.45 1-1 1h-3.75c-0.55 0-1-0.45-1-1v-12.708c0-0.55 0.45-1 1-1h3.75c0.55 0 1 0.45 1 1v12.708z" fill="#666"/>
   <path transform="translate(-6.583 -709.71)" d="m11.531 798.61c0 0.55-0.45 1-1 1h-2.781c-0.55 0-1-0.45-1-1v-9.406c0-0.55 0.45-1 1-1h2.781c0.55 0 1 0.45 1 1v9.406z" fill="#666"/>
   <path transform="translate(-6.583 -709.71)" d="m11.531 826.07c0 0.55-0.45 1-1 1h-2.781c-0.55 0-1-0.45-1-1v-9.406c0-0.55 0.45-1 1-1h2.781c0.55 0 1 0.45 1 1v9.406z" fill="#666"/>
   <path transform="translate(-6.583 -709.71)" d="m32.375 1040.1c-12.131 0-22-9.869-22-22v-282.83c0-12.131 9.869-22 22-22h108.49c12.131 0 22 9.869 22 22v282.83c0 12.131-9.869 22-22 22h-108.49z" fill="#ac9d93"/>
   <path transform="translate(-6.583 -709.71)" d="m32.375 1039.6c-11.855 0-21.5-9.645-21.5-21.5v-282.83c0-11.855 9.645-21.5 21.5-21.5h108.49c11.855 0 21.5 9.645 21.5 21.5v282.83c0 11.855-9.645 21.5-21.5 21.5h-108.49z" fill="#c8beb7"/>
   <path transform="translate(-6.583 -709.71)" d="m32.375 1038.1c-11.028 0-20-8.972-20-20v-282.83c0-11.028 8.972-20 20-20h108.49c11.028 0 20 8.972 20 20v282.83c0 11.028-8.972 20-20 20h-108.49z" fill="#e3dedb"/>
   <path transform="translate(-6.583 -709.71)" d="m101.29 740.19c0 1.818-1.474 3.292-3.292 3.292h-22.833c-1.818 0-3.292-1.474-3.292-3.292s1.474-3.292 3.292-3.292h22.833c1.818 0 3.292 1.474 3.292 3.292z" fill="#c8beb7"/>
   <path transform="translate(-6.583 -709.71)" d="m99.458 739.98c0 0.897-0.728 1.625-1.625 1.625h-22.625c-0.897 0-1.625-0.728-1.625-1.625s0.728-1.625 1.625-1.625h22.625c0.898 0 1.625 0.728 1.625 1.625z" fill="#0f0f10"/>
   <path transform="translate(-6.583 -709.71)" d="m98.787 740.5 0.43-0.43 0.211 0.211c8e-3 -0.041 8e-3 -0.085 0.013-0.127l-0.154-0.154 0.158-0.158c-4e-3 -0.042-6e-3 -0.086-0.013-0.127l-0.215 0.215-0.43-0.43 0.407-0.407-0.06-0.081-0.417 0.417-0.43-0.43 0.399-0.399-0.091-0.049-0.378 0.378-0.43-0.43 0.136-0.136-0.089-9e-3h-0.042l-0.075 0.075-0.075-0.075h-0.142l0.146 0.146-0.43 0.43-0.43-0.43 0.146-0.146h-0.141l-0.075 0.075-0.075-0.075h-0.141l0.146 0.146-0.43 0.43-0.43-0.43 0.146-0.146h-0.141l-0.075 0.075-0.075-0.075h-0.141l0.146 0.146-0.43 0.43-0.43-0.43 0.146-0.146h-0.141l-0.075 0.075-0.075-0.075h-0.141l0.146 0.146-0.43 0.43-0.43-0.43 0.146-0.146h-0.141l-0.075 0.075-0.075-0.075h-0.141l0.146 0.146-0.43 0.43-0.43-0.43 0.146-0.146h-0.141l-0.075 0.075-0.075-0.075h-0.141l0.146 0.146-0.43 0.43-0.43-0.43 0.146-0.146h-0.141l-0.075 0.075-0.075-0.075h-0.141l0.146 0.146-0.43 0.43-0.43-0.43 0.146-0.146h-0.141l-0.075 0.075-0.075-0.075h-0.141l0.146 0.146-0.43 0.43-0.43-0.43 0.146-0.146h-0.141l-0.075 0.075-0.075-0.075h-0.141l0.146 0.146-0.43 0.43-0.43-0.43 0.146-0.146h-0.141l-0.075 0.075-0.075-0.075h-0.141l0.146 0.146-0.43 0.43-0.43-0.43 0.146-0.146h-0.141l-0.075 0.075-0.075-0.075h-0.141l0.146 0.146-0.43 0.43-0.43-0.43 0.146-0.146h-0.141l-0.075 0.075-0.075-0.075h-0.141l0.146 0.146-0.43 0.43-0.43-0.43 0.146-0.146h-0.141l-0.075 0.075-0.075-0.075h-0.141l0.146 0.146-0.43 0.43-0.43-0.43 0.146-0.146h-0.141l-0.075 0.075-0.075-0.075h-0.141l0.146 0.146-0.43 0.43-0.43-0.43 0.146-0.146h-0.141l-0.075 0.075-0.075-0.075h-0.141l0.146 0.146-0.43 0.43-0.43-0.43 0.146-0.146h-0.141l-0.075 0.075-0.075-0.075h-0.141l0.146 0.146-0.43 0.43-0.43-0.43 0.146-0.146h-0.141l-0.075 0.075-0.075-0.075h-0.141l0.146 0.146-0.43 0.43-0.43-0.43 0.146-0.146h-0.141l-0.075 0.075-0.075-0.075h-0.141l0.146 0.146-0.43 0.43-0.43-0.43 0.146-0.146h-0.141l-0.075 0.075-0.075-0.075h-0.141l0.146 0.146-0.43 0.43-0.43-0.43 0.146-0.146h-0.141l-0.075 0.075-0.075-0.075h-0.141l0.146 0.146-0.43 0.43-0.43-0.43 0.146-0.146h-0.141l-0.075 0.075-0.075-0.075h-0.141l0.146 0.146-0.43 0.43-0.43-0.43 0.146-0.146h-0.141l-0.075 0.075-0.075-0.075h-0.141l0.146 0.146-0.43 0.43-0.43-0.43 0.146-0.146h-0.141l-0.075 0.075-0.075-0.075h-0.141l0.146 0.146-0.43 0.43-0.43-0.43 0.115-0.115c-0.099 0.019-0.194 0.048-0.286 0.084l0.03 0.03-0.43 0.43-0.125-0.125c-0.024 0.023-0.046 0.047-0.069 0.072l0.124 0.124-0.43 0.43-0.023-0.023c-0.033 0.086-0.061 0.174-0.079 0.266l0.102-0.102 0.43 0.43-0.43 0.43-0.089-0.089c0.019 0.084 0.044 0.166 0.076 0.244l0.014-0.014 0.43 0.43-0.105 0.105 0.073 0.068 0.103-0.103 0.428 0.428c0.066 0.024 0.134 0.047 0.204 0.063l-0.061-0.061 0.43-0.43 0.43 0.43-0.104 0.104h0.141l0.034-0.034 0.034 0.034h0.141l-0.104-0.104 0.43-0.43 0.43 0.43-0.104 0.104h0.141l0.034-0.034 0.034 0.034h0.141l-0.104-0.104 0.43-0.43 0.43 0.43-0.104 0.104h0.141l0.034-0.034 0.034 0.034h0.141l-0.104-0.104 0.43-0.43 0.43 0.43-0.104 0.104h0.141l0.034-0.034 0.034 0.034h0.141l-0.104-0.104 0.43-0.43 0.43 0.43-0.104 0.104h0.141l0.034-0.034 0.034 0.034h0.141l-0.104-0.104 0.43-0.43 0.43 0.43-0.104 0.104h0.141l0.034-0.034 0.034 0.034h0.141l-0.104-0.104 0.43-0.43 0.43 0.43-0.104 0.104h0.141l0.034-0.034 0.034 0.034h0.141l-0.104-0.104 0.43-0.43 0.43 0.43-0.104 0.104h0.141l0.034-0.034 0.034 0.034h0.141l-0.104-0.104 0.43-0.43 0.43 0.43-0.104 0.104h0.141l0.034-0.034 0.034 0.034h0.141l-0.104-0.104 0.43-0.43 0.43 0.43-0.104 0.104h0.141l0.034-0.034 0.034 0.034h0.141l-0.104-0.104 0.43-0.43 0.43 0.43-0.104 0.104h0.141l0.034-0.034 0.034 0.034h0.141l-0.104-0.104 0.43-0.43 0.43 0.43-0.104 0.104h0.141l0.034-0.034 0.034 0.034h0.141l-0.104-0.104 0.43-0.43 0.43 0.43-0.104 0.104h0.141l0.034-0.034 0.034 0.034h0.141l-0.104-0.104 0.43-0.43 0.43 0.43-0.104 0.104h0.141l0.034-0.034 0.034 0.034h0.141l-0.104-0.104 0.43-0.43 0.43 0.43-0.104 0.104h0.141l0.034-0.034 0.034 0.034h0.141l-0.104-0.104 0.43-0.43 0.43 0.43-0.104 0.104h0.141l0.034-0.034 0.034 0.034h0.141l-0.104-0.104 0.43-0.43 0.43 0.43-0.104 0.104h0.141l0.034-0.034 0.034 0.034h0.141l-0.104-0.104 0.43-0.43 0.43 0.43-0.104 0.104h0.141l0.034-0.034 0.034 0.034h0.141l-0.104-0.104 0.43-0.43 0.43 0.43-0.104 0.104h0.141l0.034-0.034 0.034 0.034h0.141l-0.104-0.104 0.43-0.43 0.43 0.43-0.104 0.104h0.141l0.034-0.034 0.034 0.034h0.141l-0.104-0.104 0.43-0.43 0.43 0.43-0.104 0.104h0.141l0.034-0.034 0.034 0.034h0.141l-0.104-0.104 0.43-0.43 0.43 0.43-0.104 0.104h0.141l0.034-0.034 0.034 0.034h0.141l-0.104-0.104 0.43-0.43 0.43 0.43-0.104 0.104h0.141l0.034-0.034 0.034 0.034h0.083c0.018 0 0.035-5e-3 0.052-5e-3l-0.099-0.099 0.43-0.43 0.351 0.351 0.091-0.049-0.372-0.372 0.43-0.43 0.398 0.398c0.02-0.027 0.044-0.05 0.063-0.077l-0.437-0.393zm-0.141-1-0.43 0.43-0.43-0.43 0.43-0.43 0.43 0.43zm-0.5 0.5-0.43 0.43-0.43-0.43 0.43-0.43 0.43 0.43zm-0.43-1.43 0.43 0.43-0.43 0.43-0.43-0.43 0.43-0.43zm-0.07 0.93-0.43 0.43-0.43-0.43 0.43-0.43 0.43 0.43zm-0.5 0.5-0.43 0.43-0.43-0.43 0.43-0.43 0.43 0.43zm-0.43-1.43 0.43 0.43-0.43 0.43-0.43-0.43 0.43-0.43zm-0.07 0.93-0.43 0.43-0.43-0.43 0.43-0.43 0.43 0.43zm-0.5 0.5-0.43 0.43-0.43-0.43 0.43-0.43 0.43 0.43zm-0.43-1.43 0.43 0.43-0.43 0.43-0.43-0.43 0.43-0.43zm-0.07 0.93-0.43 0.43-0.43-0.43 0.43-0.43 0.43 0.43zm-0.5 0.5-0.43 0.43-0.43-0.43 0.43-0.43 0.43 0.43zm-0.43-1.43 0.43 0.43-0.43 0.43-0.43-0.43 0.43-0.43zm-0.07 0.93-0.43 0.43-0.43-0.43 0.43-0.43 0.43 0.43zm-0.5 0.5-0.43 0.43-0.43-0.43 0.43-0.43 0.43 0.43zm-0.43-1.43 0.43 0.43-0.43 0.43-0.43-0.43 0.43-0.43zm-0.07 0.93-0.43 0.43-0.43-0.43 0.43-0.43 0.43 0.43zm-0.5 0.5-0.43 0.43-0.43-0.43 0.43-0.43 0.43 0.43zm-0.43-1.43 0.43 0.43-0.43 0.43-0.43-0.43 0.43-0.43zm-0.07 0.93-0.43 0.43-0.43-0.43 0.43-0.43 0.43 0.43zm-0.5 0.5-0.43 0.43-0.43-0.43 0.43-0.43 0.43 0.43zm-0.43-1.43 0.43 0.43-0.43 0.43-0.43-0.43 0.43-0.43zm-0.07 0.93-0.43 0.43-0.43-0.43 0.43-0.43 0.43 0.43zm-0.5 0.5-0.43 0.43-0.43-0.43 0.43-0.43 0.43 0.43zm-0.43-1.43 0.43 0.43-0.43 0.43-0.43-0.43 0.43-0.43zm-0.07 0.93-0.43 0.43-0.43-0.43 0.43-0.43 0.43 0.43zm-0.5 0.5-0.43 0.43-0.43-0.43 0.43-0.43 0.43 0.43zm-0.43-1.43 0.43 0.43-0.43 0.43-0.43-0.43 0.43-0.43zm-0.07 0.93-0.43 0.43-0.43-0.43 0.43-0.43 0.43 0.43zm-0.5 0.5-0.43 0.43-0.43-0.43 0.43-0.43 0.43 0.43zm-0.43-1.43 0.43 0.43-0.43 0.43-0.43-0.43 0.43-0.43zm-0.07 0.93-0.43 0.43-0.43-0.43 0.43-0.43 0.43 0.43zm-0.5 0.5-0.43 0.43-0.43-0.43 0.43-0.43 0.43 0.43zm-0.43-1.43 0.43 0.43-0.43 0.43-0.43-0.43 0.43-0.43zm-0.07 0.93-0.43 0.43-0.43-0.43 0.43-0.43 0.43 0.43zm-0.5 0.5-0.43 0.43-0.43-0.43 0.43-0.43 0.43 0.43zm-0.43-1.43 0.43 0.43-0.43 0.43-0.43-0.43 0.43-0.43zm-0.07 0.93-0.43 0.43-0.43-0.43 0.43-0.43 0.43 0.43zm-0.5 0.5-0.43 0.43-0.43-0.43 0.43-0.43 0.43 0.43zm-0.43-1.43 0.43 0.43-0.43 0.43-0.43-0.43 0.43-0.43zm-0.07 0.93-0.43 0.43-0.43-0.43 0.43-0.43 0.43 0.43zm-0.5 0.5-0.43 0.43-0.43-0.43 0.43-0.43 0.43 0.43zm-0.43-1.43 0.43 0.43-0.43 0.43-0.43-0.43 0.43-0.43zm-0.07 0.93-0.43 0.43-0.43-0.43 0.43-0.43 0.43 0.43zm-0.5 0.5-0.43 0.43-0.43-0.43 0.43-0.43 0.43 0.43zm-0.43-1.43 0.43 0.43-0.43 0.43-0.43-0.43 0.43-0.43zm-0.07 0.93-0.43 0.43-0.43-0.43 0.43-0.43 0.43 0.43zm-0.5 0.5-0.43 0.43-0.43-0.43 0.43-0.43 0.43 0.43zm-0.43-1.43 0.43 0.43-0.43 0.43-0.43-0.43 0.43-0.43zm-0.07 0.93-0.43 0.43-0.43-0.43 0.43-0.43 0.43 0.43zm-0.5 0.5-0.43 0.43-0.43-0.43 0.43-0.43 0.43 0.43zm-0.43-1.43 0.43 0.43-0.43 0.43-0.43-0.43 0.43-0.43zm-0.07 0.93-0.43 0.43-0.43-0.43 0.43-0.43 0.43 0.43zm-0.5 0.5-0.43 0.43-0.43-0.43 0.43-0.43 0.43 0.43zm-0.43-1.43 0.43 0.43-0.43 0.43-0.43-0.43 0.43-0.43zm-0.07 0.93-0.43 0.43-0.43-0.43 0.43-0.43 0.43 0.43zm-0.5 0.5-0.43 0.43-0.43-0.43 0.43-0.43 0.43 0.43zm-0.43-1.43 0.43 0.43-0.43 0.43-0.43-0.43 0.43-0.43zm-0.07 0.93-0.43 0.43-0.43-0.43 0.43-0.43 0.43 0.43zm-0.5 0.5-0.43 0.43-0.43-0.43 0.43-0.43 0.43 0.43zm-0.43-1.43 0.43 0.43-0.43 0.43-0.43-0.43 0.43-0.43zm-0.07 0.93-0.43 0.43-0.43-0.43 0.43-0.43 0.43 0.43zm-0.5 0.5-0.43 0.43-0.43-0.43 0.43-0.43 0.43 0.43zm-0.43-1.43 0.43 0.43-0.43 0.43-0.43-0.43 0.43-0.43zm-0.07 0.93-0.43 0.43-0.43-0.43 0.43-0.43 0.43 0.43zm-0.5 0.5-0.43 0.43-0.43-0.43 0.43-0.43 0.43 0.43zm-0.43-1.43 0.43 0.43-0.43 0.43-0.43-0.43 0.43-0.43zm-0.07 0.93-0.43 0.43-0.43-0.43 0.43-0.43 0.43 0.43zm-0.5 0.5-0.43 0.43-0.43-0.43 0.43-0.43 0.43 0.43zm-0.43-1.43 0.43 0.43-0.43 0.43-0.43-0.43 0.43-0.43zm-0.07 0.93-0.43 0.43-0.43-0.43 0.43-0.43 0.43 0.43zm-0.5 0.5-0.43 0.43-0.43-0.43 0.43-0.43 0.43 0.43zm-0.43-1.43 0.43 0.43-0.43 0.43-0.43-0.43 0.43-0.43zm-0.929 0.93 0.43-0.43 0.43 0.43-0.43 0.43-0.43-0.43zm0 1 0.43-0.43 0.43 0.43-0.43 0.43-0.43-0.43zm0.929 0.93-0.43-0.43 0.43-0.43 0.43 0.43-0.43 0.43zm0.071-0.93 0.43-0.43 0.43 0.43-0.43 0.43-0.43-0.43zm0.929 0.93-0.43-0.43 0.43-0.43 0.43 0.43-0.43 0.43zm0.071-0.93 0.43-0.43 0.43 0.43-0.43 0.43-0.43-0.43zm0.929 0.93-0.43-0.43 0.43-0.43 0.43 0.43-0.43 0.43zm0.071-0.93 0.43-0.43 0.43 0.43-0.43 0.43-0.43-0.43zm0.929 0.93-0.43-0.43 0.43-0.43 0.43 0.43-0.43 0.43zm0.071-0.93 0.43-0.43 0.43 0.43-0.43 0.43-0.43-0.43zm0.929 0.93-0.43-0.43 0.43-0.43 0.43 0.43-0.43 0.43zm0.071-0.93 0.43-0.43 0.43 0.43-0.43 0.43-0.43-0.43zm0.929 0.93-0.43-0.43 0.43-0.43 0.43 0.43-0.43 0.43zm0.071-0.93 0.43-0.43 0.43 0.43-0.43 0.43-0.43-0.43zm0.929 0.93-0.43-0.43 0.43-0.43 0.43 0.43-0.43 0.43zm0.071-0.93 0.43-0.43 0.43 0.43-0.43 0.43-0.43-0.43zm0.929 0.93-0.43-0.43 0.43-0.43 0.43 0.43-0.43 0.43zm0.071-0.93 0.43-0.43 0.43 0.43-0.43 0.43-0.43-0.43zm0.929 0.93-0.43-0.43 0.43-0.43 0.43 0.43-0.43 0.43zm0.071-0.93 0.43-0.43 0.43 0.43-0.43 0.43-0.43-0.43zm0.929 0.93-0.43-0.43 0.43-0.43 0.43 0.43-0.43 0.43zm0.071-0.93 0.43-0.43 0.43 0.43-0.43 0.43-0.43-0.43zm0.929 0.93-0.43-0.43 0.43-0.43 0.43 0.43-0.43 0.43zm0.071-0.93 0.43-0.43 0.43 0.43-0.43 0.43-0.43-0.43zm0.929 0.93-0.43-0.43 0.43-0.43 0.43 0.43-0.43 0.43zm0.071-0.93 0.43-0.43 0.43 0.43-0.43 0.43-0.43-0.43zm0.929 0.93-0.43-0.43 0.43-0.43 0.43 0.43-0.43 0.43zm0.071-0.93 0.43-0.43 0.43 0.43-0.43 0.43-0.43-0.43zm0.929 0.93-0.43-0.43 0.43-0.43 0.43 0.43-0.43 0.43zm0.071-0.93 0.43-0.43 0.43 0.43-0.43 0.43-0.43-0.43zm0.929 0.93-0.43-0.43 0.43-0.43 0.43 0.43-0.43 0.43zm0.071-0.93 0.43-0.43 0.43 0.43-0.43 0.43-0.43-0.43zm0.929 0.93-0.43-0.43 0.43-0.43 0.43 0.43-0.43 0.43zm0.071-0.93 0.43-0.43 0.43 0.43-0.43 0.43-0.43-0.43zm0.929 0.93-0.43-0.43 0.43-0.43 0.43 0.43-0.43 0.43zm0.071-0.93 0.43-0.43 0.43 0.43-0.43 0.43-0.43-0.43zm0.929 0.93-0.43-0.43 0.43-0.43 0.43 0.43-0.43 0.43zm0.071-0.93 0.43-0.43 0.43 0.43-0.43 0.43-0.43-0.43zm0.929 0.93-0.43-0.43 0.43-0.43 0.43 0.43-0.43 0.43zm0.071-0.93 0.43-0.43 0.43 0.43-0.43 0.43-0.43-0.43zm0.929 0.93-0.43-0.43 0.43-0.43 0.43 0.43-0.43 0.43zm0.071-0.93 0.43-0.43 0.43 0.43-0.43 0.43-0.43-0.43zm0.929 0.93-0.43-0.43 0.43-0.43 0.43 0.43-0.43 0.43zm0.071-0.93 0.43-0.43 0.43 0.43-0.43 0.43-0.43-0.43zm0.929 0.93-0.43-0.43 0.43-0.43 0.43 0.43-0.43 0.43zm0.071-0.93 0.43-0.43 0.43 0.43-0.43 0.43-0.43-0.43zm0.929 0.93-0.43-0.43 0.43-0.43 0.43 0.43-0.43 0.43zm0.071-0.93 0.43-0.43 0.43 0.43-0.43 0.43-0.43-0.43zm0.929 0.93-0.43-0.43 0.43-0.43 0.43 0.43-0.43 0.43zm0.5-0.5-0.43-0.43 0.43-0.43 0.43 0.43-0.43 0.43zm0.071-0.93 0.43-0.43 0.43 0.43-0.43 0.43-0.43-0.43z" fill="url(#k)"/>
   <path transform="translate(-6.583 -709.71)" d="m98.948 738.8 0.063 0.063-0.063-0.063z" fill="url(#l)"/>
   <path transform="translate(-6.583 -709.71)" d="m89.541 727.65a2.958 2.958 0 1 0 -5.916 0 2.958 2.958 0 1 0 5.916 0" fill="url(#m)"/>
   <path transform="translate(-6.583 -709.71)" d="m87.885 727.65a1.302 1.302 0 1 0 -2.604 0 1.302 1.302 0 1 0 2.604 0" fill="url(#n)"/>
   <path transform="translate(-6.583 -709.71)" d="m86.258 728.11a0.31 0.31 0 1 0 -0.62 0 0.31 0.31 0 0 0 0.62 0" fill="url(#o)"/>
   <path transform="translate(-6.583 -709.71)" d="m87.643 727.19a0.31 0.31 0 1 0 -0.62 0 0.31 0.31 0 0 0 0.62 0" fill="url(#p)"/>
   <path transform="translate(-6.583 -709.71)" d="m86.624 727.08a0.457 0.457 0 1 0 -0.914 0 0.457 0.457 0 0 0 0.914 0" fill="url(#q)"/>
   <path transform="translate(-6.583 -709.71)" d="m154.67 995.1c0 1.1-0.9 2-2 2h-132.5c-1.1 0-2-0.9-2-2v-236.33c0-1.1 0.9-2 2-2h132.5c1.1 0 2 0.9 2 2v236.33z" fill="#808080"/>
   <path transform="translate(-6.583 -709.71)" d="m20 758.94h133v236.71h-133z" fill="#1a1a1a"/>
   <path transform="translate(-6.583 -709.71)" d="m100.42 1017.9a14.708 14.708 0 1 0 -29.416 0 14.708 14.708 0 1 0 29.416 0" fill="#c8beb7"/>
   <path transform="translate(-6.583 -709.71)" d="m85.708 1003.5c8.071 0 14.616 6.501 14.701 14.552 0-0.053 8e-3 -0.104 8e-3 -0.156 0-8.124-6.585-14.708-14.708-14.708s-14.709 6.584-14.709 14.708c0 0.053 7e-3 0.104 8e-3 0.156 0.085-8.051 6.63-14.552 14.7-14.552z" fill="#c8beb7"/>
   <path transform="translate(-6.583 -709.71)" d="m88.329 1023.4h-5.281c-1.654 0-3-1.346-3-3v-5.208c0-1.654 1.346-3 3-3h5.281c1.654 0 3 1.346 3 3v5.208c0 1.655-1.346 3-3 3zm-5.281-10.208c-1.103 0-2 0.897-2 2v5.208c0 1.103 0.897 2 2 2h5.281c1.103 0 2-0.897 2-2v-5.208c0-1.103-0.897-2-2-2h-5.281z" fill="url(#r)"/>
   <circle cx="128.66" cy="200.71" r="15" fill="#f00"/>
   <path d="m127.1 191.69h-1.022l-0.68785 2.6482-0.71732-2.6482h-1.0637c0.21372 0.62398 0.43482 1.2529 0.64854 1.8793 0.32427 0.94088 0.52571 1.6508 0.61661 2.1348v2.7317h1.0097v-2.7317l1.216-4.0141zm2.6998 5.1171v-1.7614c0-0.538-0.0934-0.92859-0.28251-1.1841-0.25303-0.34392-0.60678-0.51589-1.0612-0.51589s-0.80822 0.17197-1.0612 0.51589c-0.19407 0.25549-0.28497 0.64608-0.28497 1.1841v1.7614c0 0.53554 0.0909 0.93105 0.28497 1.1816 0.25303 0.34392 0.60678 0.51343 1.0612 0.51343 0.45693 0 0.81068-0.17197 1.0612-0.51343 0.18916-0.25058 0.28251-0.64609 0.28251-1.1816zm-0.9114 0.17196c0 0.4643-0.14002 0.69768-0.43482 0.69768-0.29479 0-0.43481-0.23338-0.43481-0.69768v-2.1151c0-0.4643 0.14002-0.69767 0.43481-0.69767 0.2948 0 0.43482 0.23092 0.43482 0.69767v2.1151zm4.2794 1.4568v-5.0262h-0.9114v3.8421c-0.20144 0.28496-0.39305 0.42745-0.57484 0.42745-0.12283 0-0.19407-0.0713-0.21373-0.21373-0.0123-0.0295-0.0123-0.14003-0.0123-0.35375v-3.7021h-0.90894v3.9748c0 0.35375 0.0319 0.5945 0.0811 0.74681 0.0909 0.25549 0.29233 0.3734 0.58712 0.3734 0.33164 0 0.67802-0.20144 1.0416-0.61906v0.54782h0.9114z" fill="#fff"/>
   <path d="m130.31 203.54c-0.14739 0-0.2997 0.0712-0.44955 0.21863v3.0314c0.14985 0.14985 0.30216 0.22109 0.44955 0.22109 0.2604 0 0.39306-0.22109 0.39306-0.67065v-2.1225c0-0.4471-0.13266-0.67802-0.39306-0.67802z" fill="#fff"/>
   <path d="m133.66 203.54c-0.30216 0-0.45201 0.23092-0.45201 0.6903v0.45938h0.90157v-0.45938c-2e-3 -0.45938-0.15231-0.6903-0.44956-0.6903z" fill="#fff"/>
   <path d="m135.86 201.01c-0.18179-0.79348-0.83033-1.3782-1.6115-1.4641-1.8498-0.20635-3.7218-0.20635-5.5838-0.20635-1.8646 0-3.7365 0-5.5839 0.20635-0.78119 0.086-1.4297 0.67311-1.6115 1.4641-0.26039 1.13-0.26285 2.3632-0.26285 3.5252s0 2.3952 0.2604 3.5252c0.18179 0.79348 0.83033 1.3782 1.6115 1.4641 1.8498 0.20635 3.7218 0.20635 5.5838 0.20635s3.7365 0 5.5838-0.20635c0.7812-0.0884 1.4297-0.67311 1.6115-1.4641 0.2604-1.13 0.26286-2.3632 0.26286-3.5252 0-1.1644 0-2.3952-0.2604-3.5252zm-10.399 1.017h-1.0809v5.7362h-1.0023v-5.7362h-1.0612v-0.94088h3.142v0.94088zm2.7219 5.7337h-0.90157v-0.54291c-0.35866 0.41025-0.69767 0.6117-1.0293 0.6117-0.28987 0-0.49132-0.11792-0.57975-0.37095-0.0491-0.15231-0.0786-0.38814-0.0786-0.73944v-3.933h0.90157v3.6628c0 0.21126 0 0.32181 7e-3 0.35129 0.0221 0.14003 0.0909 0.21127 0.21127 0.21127 0.18178 0 0.37094-0.14003 0.56993-0.42008v-3.8053h0.90157v4.9746zm3.4245-1.4912c0 0.45939-0.0319 0.79103-0.0909 1.0023-0.12038 0.37094-0.36112 0.55765-0.71979 0.55765-0.32181 0-0.62889-0.17934-0.93105-0.55028v0.48149h-0.90157v-6.6746h0.90157v2.1815c0.29234-0.35866 0.59941-0.54045 0.93105-0.54045 0.35867 0 0.59941 0.18916 0.71979 0.5601 0.059 0.20144 0.0909 0.53063 0.0909 0.99984v1.9825zm3.4024-0.83033h-1.8031v0.88192c0 0.46184 0.14985 0.69031 0.45938 0.69031 0.2211 0 0.3513-0.12038 0.40289-0.36112 7e-3 -0.0491 0.0196-0.24812 0.0196-0.60924h0.92122v0.1302c0 0.28988-0.0123 0.49132-0.0197 0.58221-0.0295 0.19899-0.10072 0.38078-0.20881 0.54046-0.25057 0.36112-0.61906 0.53799-1.0907 0.53799s-0.83033-0.1695-1.0907-0.51097c-0.19162-0.24812-0.28988-0.64117-0.28988-1.1693v-1.7417c0-0.53308 0.086-0.92123 0.2776-1.1718 0.2604-0.34147 0.61906-0.51097 1.0784-0.51097 0.45202 0 0.81068 0.1695 1.0637 0.51097 0.18916 0.25057 0.28005 0.63872 0.28005 1.1718v1.0293z" fill="#fff"/>
   <circle cx="95.921" cy="200.71" r="15" fill="#ff7f2a"/>
   <path d="m89.536 204.79c1.2823 0 2.319 1.0391 2.319 2.3215 0 1.2823-1.0391 2.319-2.319 2.319s-2.319-1.0367-2.319-2.319c0-1.2824 1.0367-2.3215 2.319-2.3215z" fill="#fff"/>
   <path d="m87.22 201.26c2.1741 0 4.218 0.84998 5.7558 2.3927 1.5378 1.5452 2.3854 3.6038 2.3854 5.7951h3.3483c0-6.3626-5.1539-11.539-11.49-11.539v3.3508z" fill="#fff"/>
   <path d="m87.222 195.32c7.7481 0 14.054 6.3405 14.054 14.13h3.3483c0-9.6397-7.8071-17.479-17.403-17.479v3.3484z" fill="#fff"/>
   <circle cx="63.179" cy="200.71" r="15" fill="url(#s)"/>
   <circle cx="63.179" cy="200.71" r="15" fill="url(#t)"/>
   <circle cx="63.179" cy="200.71" r="15" fill="#f00" opacity=".51"/>
   <path d="m62.815 192.83c0.14248 0.0884 0.30462 0.21863 0.48395 0.3906 0.17196 0.17933 0.34147 0.39797 0.50606 0.65836 0.15722 0.24566 0.29725 0.53554 0.42008 0.86964 0.10072 0.3341 0.14985 0.7247 0.14985 1.1718-0.01228 0.81805-0.19407 1.4715-0.54291 1.9628-0.1695 0.23829-0.35129 0.45693-0.54045 0.65837-0.21127 0.19899-0.43482 0.40534-0.67311 0.61415-0.13757 0.14003-0.26286 0.29971-0.37832 0.47904-0.13511 0.1867-0.2039 0.40042-0.2039 0.64608 0 0.23829 0.06878 0.43482 0.20881 0.59204 0.11792 0.14986 0.23338 0.28006 0.34638 0.3906l0.77629 0.63626c0.48149 0.39552 0.90403 0.82788 1.2676 1.3045 0.34147 0.48395 0.5208 1.1153 0.53554 1.8965 0 1.1079-0.48886 2.0881-1.469 2.9455-1.0146 0.88437-2.4787 1.3413-4.3924 1.3708-1.6017-0.0147-2.7981-0.35621-3.5866-1.0244-0.79594-0.62398-1.1964-1.3708-1.1964-2.238 0-0.42253 0.1302-0.8942 0.3906-1.415 0.25057-0.51834 0.7075-0.97527 1.3659-1.3683 0.73944-0.42254 1.5182-0.70505 2.3338-0.84507 0.80822-0.11792 1.4764-0.18425 2.012-0.20144-0.16459-0.21619-0.31199-0.44956-0.43973-0.69522-0.14985-0.23829-0.22601-0.52817-0.22601-0.86227 0-0.20144 0.02948-0.37095 0.08598-0.5036 0.04913-0.14249 0.09581-0.27268 0.14003-0.39306-0.2604 0.0295-0.50606 0.0442-0.73452 0.0442-1.2185-0.0147-2.1446-0.39797-2.7833-1.1497-0.6682-0.70013-1.0023-1.5133-1.0023-2.4419 0-1.1227 0.47167-2.1422 1.4199-3.056 0.64854-0.53554 1.3241-0.88437 2.0267-1.049 0.69276-0.14248 1.3438-0.21126 1.9505-0.21126h4.5693l-1.4125 0.82541h-1.4076zm0.88192 13.16c0-0.58221-0.18916-1.0858-0.56747-1.5157-0.40043-0.4078-1.0269-0.9114-1.8793-1.5059-0.14494-0.0147-0.3169-0.0221-0.51343-0.0221-0.11546-0.0147-0.41516 0-0.89666 0.0442-0.47412 0.0663-0.95807 0.17442-1.4518 0.32427-0.11546 0.0442-0.28005 0.11301-0.49132 0.20145-0.21127 0.0958-0.42499 0.23583-0.64609 0.4127-0.21127 0.18671-0.3906 0.41517-0.53554 0.69277-0.16705 0.28987-0.25057 0.64117-0.25057 1.049 0 0.80331 0.36358 1.4641 1.0907 1.9849 0.69276 0.5208 1.6386 0.78857 2.8398 0.8033 1.0784-0.0147 1.9014-0.25303 2.4664-0.71487 0.55765-0.45692 0.83524-1.0391 0.83524-1.754zm-3.1887-6.7016c0.60187-0.0221 1.103-0.23829 1.5034-0.64854 0.19407-0.28988 0.31936-0.58713 0.3734-0.89421 0.03194-0.30707 0.04913-0.56256 0.04913-0.77137 0-0.90157-0.23092-1.8105-0.69276-2.7268-0.21618-0.43973-0.50115-0.79839-0.8549-1.0735-0.36112-0.2604-0.77629-0.39797-1.243-0.41271-0.61906 0.0147-1.1349 0.26531-1.5452 0.74926-0.34638 0.50606-0.51097 1.0735-0.49623 1.7 0 0.82788 0.24075 1.6852 0.7247 2.5819 0.23583 0.41762 0.53554 0.77137 0.90894 1.0612s0.79594 0.43482 1.2725 0.43482z" fill="#fff"/>
   <polygon transform="matrix(.24566 0 0 .24566 31.243 143.9)" points="140.95 210.71 150.72 210.71 150.72 220.47 155.45 220.47 155.45 210.71 165.22 210.71 165.22 205.98 155.45 205.98 155.45 196.21 150.72 196.21 150.72 205.98 140.95 205.98" fill="#fff"/>
   <circle cx="63.179" cy="267.84" r="15" fill="#000080"/>
   <path d="m58.679 264.89h1.9284v-1.7491c0-0.77137 0.01965-1.9604 0.62152-2.6974 0.6338-0.7812 1.501-1.3118 2.9946-1.3118 2.4345 0 3.4589 0.32427 3.4589 0.32427l-0.48149 2.6654s-0.80331-0.21618-1.555-0.21618c-0.74926 0-1.4224 0.25057-1.4224 0.9507v2.0341h3.0757l-0.21618 2.604h-2.8619v9.0477h-3.6161v-9.0477h-1.9284v-2.604z" fill="#fff"/>
   <circle cx="63.179" cy="234.27" r="15" fill="#ffd42a"/>
   <path d="m66.768 226.37c-1.1374-0.51589-2.3436-0.7812-3.5891-0.7812-1.0367 0-2.0586 0.20144-3.0388 0.56747 0.23092 0.20881 6.3331 5.7484 6.6279 6.0187v-5.8049z" fill="#fff"/>
   <path d="m58.698 241.73v-7.4853c-0.28988 0.26531-3.4957 3.1788-3.5965 3.2697 0.69767 1.7466 1.9702 3.2304 3.5965 4.2155z" fill="#fff"/>
   <path d="m54.475 234.29c0 0.74681 0.113 1.5084 0.3169 2.2625 0.23338-0.21618 7.5614-6.876 7.7137-7.0136-0.14494-0.13266-3.1936-2.8988-3.2943-2.9897-2.9234 1.501-4.7363 4.4587-4.7363 7.7407z" fill="#fff"/>
   <path d="m59.612 238.08v4.1541c0.88438 0.39797 1.8105 0.64363 2.7637 0.73206h1.5968c3.0069-0.28005 5.6919-2.1348 7.0259-4.8862h-11.386z" fill="#fff"/>
   <path d="m67.684 226.87v10.293h3.7046c0.32427-0.9286 0.49378-1.8916 0.49378-2.8669 0-3.0265-1.6066-5.8492-4.1983-7.4263z" fill="#fff"/>
   <circle cx="95.921" cy="167.15" r="15" fill="#a05a2c"/>
   <path d="m90.433 159.77h10.979c1.0416 0 1.894 0.85244 1.894 1.8965v10.976c0 1.0416-0.85244 1.894-1.894 1.894h-10.979c-1.0416 0-1.8965-0.85244-1.8965-1.894v-10.979c0-1.0416 0.8549-1.894 1.8965-1.894zm8.8634 1.6386c-0.36603 0-0.66574 0.29971-0.66574 0.66574v1.5919c0 0.36603 0.29725 0.66574 0.66574 0.66574h1.668c0.36603 0 0.66574-0.29971 0.66574-0.66574v-1.5919c0-0.36603-0.29971-0.66574-0.66574-0.66574h-1.668zm2.3411 4.6061h-1.2995c0.12283 0.40288 0.18916 0.82787 0.18916 1.2676 0 2.4566-2.0562 4.4464-4.5914 4.4464s-4.5914-1.9923-4.5914-4.4464c0-0.44219 0.06633-0.86473 0.18916-1.2676h-1.356v6.2398c0 0.32182 0.26286 0.58467 0.58713 0.58467h10.283c0.32428 0 0.58713-0.26285 0.58713-0.58467v-6.2398zm-5.7018-1.7663c-1.6386 0-2.9651 1.2873-2.9651 2.8742 0 1.587 1.329 2.8742 2.9651 2.8742 1.6386 0 2.9651-1.2873 2.9651-2.8742 0-1.5894-1.3266-2.8742-2.9651-2.8742z" fill="#fff"/>
   <circle cx="63.179" cy="167.15" r="15" fill="#d40000"/>
   <path d="m63.179 158.44c-4.8076 0-8.7037 3.8962-8.7037 8.7037 0 3.5645 2.1422 6.6254 5.2104 7.9741-0.02457-0.60924-0.0049-1.3388 0.14985-1.9997 0.16705-0.70751 1.1202-4.7437 1.1202-4.7437s-0.2776-0.55519-0.2776-1.3757c0-1.2897 0.74926-2.2527 1.6803-2.2527 0.79102 0 1.1743 0.5945 1.1743 1.3069 0 0.79594-0.50852 1.9874-0.76892 3.088-0.21864 0.92368 0.4643 1.6754 1.3732 1.6754 1.6484 0 2.7612-2.1176 2.7612-4.6282 0-1.9063-1.2848-3.3361-3.621-3.3361-2.6408 0-4.2843 1.9677-4.2843 4.1664 0 0.75909 0.22355 1.2946 0.57484 1.7073 0.16214 0.18915 0.18424 0.26531 0.12529 0.48395-0.03931 0.16213-0.13757 0.54536-0.17688 0.69767-0.05896 0.22109-0.23583 0.2997-0.43482 0.21864-1.216-0.49624-1.7835-1.8277-1.7835-3.3262 0-2.4713 2.0857-5.4389 6.2226-5.4389 3.3213 0 5.5102 2.405 5.5102 4.9869 0 3.4147-1.899 5.9646-4.697 5.9646-0.94088 0-1.8253-0.50852-2.125-1.0834 0 0-0.50606 2.0046-0.61169 2.3927-0.18424 0.67065-0.54536 1.3413-0.87701 1.8646 0.7812 0.23092 1.6091 0.3562 2.4664 0.3562 4.8076 0 8.7037-3.8962 8.7037-8.7037-0.0074-4.8026-3.9035-8.6988-8.7111-8.6988z" fill="#fff"/>
   <circle cx="30.437" cy="167.15" r="15" fill="#2a7fff"/>
   <path d="m30.228 174.91-4.9992-3.0781v-0.94334l1.6779 0.90894 3.3189-2.7268 0.0025 5.8393zm-8.2517-6.5395 3.0069-2.5524 4.896 2.9725-2.9012 2.518-5.0016-2.9381zm3.0437-3.0781-3.2869-2.6924 5.2104-3.2181 3.2845 2.7293-5.208 3.1813zm10.625 6.5395-4.9967 3.0781v-5.8393l3.3189 2.7268 1.6779-0.90894v0.94334zm-1.7491-0.52326-2.9037-2.518 4.896-2.9725 3.0093 2.5524-5.0016 2.9381zm1.9579-6.0162-5.208-3.1838 3.2845-2.7268 5.2104 3.2181-3.2869 2.6924z" fill="#fff"/>
   <circle cx="128.66" cy="133.59" r="15" fill="#0cf"/>
   <path d="m137.37 128.19c-0.64118 0.28497-1.329 0.47658-2.0513 0.56256 0.73698-0.44219 1.3045-1.1423 1.5698-1.9751-0.6903 0.41025-1.4543 0.7075-2.2674 0.86718-0.651-0.69522-1.5796-1.1276-2.6089-1.1276-1.9726 0-3.5719 1.5992-3.5719 3.5719 0 0.28005 0.0319 0.55274 0.0933 0.81314-2.9676-0.1474-5.5986-1.5698-7.3624-3.7316-0.30708 0.52817-0.48395 1.1423-0.48395 1.7958 0 1.2381 0.63134 2.3338 1.587 2.9725-0.58467-0.0172-1.135-0.17933-1.6164-0.4471v0.0442c0 1.7294 1.2308 3.1739 2.8644 3.5031-0.2997 0.0811-0.6166 0.12529-0.94088 0.12529-0.22846 0-0.45447-0.0221-0.6731-0.0639 0.45447 1.4199 1.7737 2.4517 3.3361 2.4812-1.2209 0.95808-2.7612 1.528-4.4366 1.528-0.28742 0-0.57239-0.0172-0.85244-0.0491 1.582 1.0121 3.4589 1.6042 5.4758 1.6042 6.569 0 10.16-5.4414 10.16-10.16 0-0.15477-5e-3 -0.30953-0.01-0.46184 0.70505-0.50606 1.3094-1.135 1.7884-1.8523z" fill="#fff"/>
   <circle cx="95.921" cy="133.59" r="15" fill="#aa00d4"/>
   <path d="m104.12 128.52-1.9874 0.66574c-0.29479 0.1302-1.1006 1.0637-2.4934 2.8619-1.4813 1.8621-2.2429 3.0585-2.3682 3.6603l-0.08352 1.6631-0.04176 0.99738 0.1695 2.5278 2.6212 0.0663-0.04176 1.2652h-4.2696l-3.8053 0.0663 0.12774-1.1964 1.2258-0.0688c0.63626-0.0663 1.0146-0.20144 1.1423-0.40042 0.08598-0.1302 0.12774-0.93351 0.12774-2.3289v-0.86472l-0.04176-1.727c-0.08598-0.39797-0.76155-1.8621-2.0709-4.3924-1.3536-2.5942-2.2404-4.1246-2.6654-4.6577l-2.4517-0.53309v-1.1325c0.12774-0.13266 1.4813-0.13266 3.9748-0.0663 1.7344-0.0663 3.1715-0.0663 4.3113 0.0663l-0.08353 0.93351-2.5794 0.40042c0.80331 1.8621 2.0292 4.4563 3.6775 7.7162 2.1569-2.5942 3.2992-4.2573 3.341-4.9894l-2.1987-0.53308-0.17196-1.1988h3.68l3.4663 0.0663-0.51097 1.1325z" fill="#fff"/>
   <circle cx="63.179" cy="133.59" r="15" fill="#666"/>
   <path d="m70.657 137.65c-0.4078 0.90648-0.60432 1.3094-1.13 2.1102-0.73452 1.1178-1.7688 2.5106-3.0511 2.5229-1.1399 0.0123-1.4322-0.74189-2.9799-0.73206-1.5452 0.01-1.8695 0.7468-3.0093 0.73698-1.2823-0.0123-2.2625-1.2701-2.9971-2.3878-2.0537-3.1272-2.2674-6.7974-1.0023-8.748 0.90157-1.3855 2.3215-2.1962 3.6554-2.1962 1.3585 0 2.2134 0.74435 3.3361 0.74435 1.0907 0 1.754-0.74681 3.3262-0.74681 1.189 0 2.4492 0.64855 3.3459 1.7663-2.9406 1.6115-2.464 5.8074 0.50606 6.9301zm-5.0434-9.9468c0.56993-0.73206 1.0047-1.7688 0.84753-2.8251-0.93351 0.0639-2.0242 0.65837-2.6605 1.4322-0.57976 0.70259-1.0563 1.7442-0.86964 2.7563 1.0195 0.0319 2.0734-0.5773 2.6826-1.3634z" clip-rule="evenodd" fill="#fff" fill-rule="evenodd"/>
   <circle cx="30.437" cy="133.59" r="15" fill="#2ad4ff"/>
   <use transform="matrix(.24566 0 0 .24566 -73.728 9.3991)" width="100%" height="100%" fill="#ffffff" overflow="visible" xlink:href="#SVGID_41_"/>
   <use transform="matrix(.24566 0 0 .24566 -73.728 9.3991)" width="100%" height="100%" fill="#ffffff" overflow="visible" xlink:href="#SVGID_43_"/>
   <use transform="matrix(.24566 0 0 .24566 -73.728 9.3991)" width="100%" height="100%" fill="#ffffff" overflow="visible" xlink:href="#SVGID_45_"/>
   <use transform="matrix(.24566 0 0 .24566 -73.728 9.3991)" width="100%" height="100%" fill="#ffffff" overflow="visible" xlink:href="#SVGID_47_"/>
   <circle cx="128.66" cy="100.02" r="15" fill="#71c837"/>
   <g transform="matrix(.24566 0 0 .24566 194.24 86.177)" fill="#fff">
    <path d="m-257.48 26.869 0.77-1.16 0.77-1.14 1.71-2.57c0.21-0.31 0.13-0.74-0.19-0.95-0.31-0.21-0.74-0.13-0.95 0.19l-1.83 2.75-0.77 1.16-0.78 1.17c-2.48-0.96-5.24-1.5-8.16-1.5-2.91 0-5.68 0.54-8.16 1.5l-0.78-1.17-0.77-1.16-1.83-2.75c-0.21-0.32-0.63-0.4-0.95-0.19-0.31 0.21-0.4 0.63-0.19 0.95l1.71 2.57 0.76 1.14 0.77 1.16c-5.82 2.71-9.76 7.85-9.76 13.73h38.4c-0.01-5.88-3.95-11.02-9.77-13.73zm-17.67 8.24c-1.14 0-2.06-0.92-2.06-2.06s0.92-2.05 2.06-2.05 2.05 0.92 2.05 2.05c0 1.14-0.91 2.06-2.05 2.06zm16.45 0c-1.13 0-2.05-0.92-2.05-2.06s0.92-2.05 2.05-2.05c1.14 0 2.06 0.92 2.06 2.05 0 1.14-0.92 2.06-2.06 2.06z"/>
    <path d="m-285.83 43.339h-0.3v30.17c0 2.4 1.95 4.34 4.34 4.34h3.13c-0.11 0.36-0.16 0.75-0.16 1.14v8.69c0 2.27 1.84 4.11 4.11 4.11s4.12-1.84 4.12-4.11v-8.69c0-0.4-0.06-0.78-0.17-1.14h7.64c-0.11 0.36-0.17 0.75-0.17 1.14v8.69c0 2.27 1.84 4.11 4.11 4.11s4.12-1.84 4.12-4.11v-8.69c0-0.4-0.06-0.78-0.17-1.14h3.14c2.4 0 4.34-1.95 4.34-4.34v-30.17h-38.08z"/>
    <path d="m-292.98 43.339c-2.27 0-4.12 1.84-4.12 4.11v17.6c0 2.27 1.84 4.11 4.12 4.11 2.27 0 4.11-1.84 4.11-4.11v-17.6c0.01-2.26-1.84-4.11-4.11-4.11z"/>
    <path d="m-240.86 43.339c-2.27 0-4.12 1.84-4.12 4.11v17.6c0 2.27 1.84 4.11 4.12 4.11 2.27 0 4.11-1.84 4.11-4.11v-17.6c0-2.26-1.85-4.11-4.11-4.11z"/>
   </g>
   <circle cx="95.921" cy="100.02" r="15" fill="#f60"/>
   <path d="m87.743 103.58c0.03685 0 0.06879-0.0319 0.0737-0.0737l0.2039-1.6091-0.2039-1.6459c-0.0049-0.0442-0.03685-0.0737-0.07615-0.0737-0.03931 0-0.07124 0.0319-0.07615 0.0737l-0.17688 1.6459 0.17688 1.6091c0.0074 0.0418 0.03931 0.0737 0.07861 0.0737z" fill="#fff"/>
   <path d="m87.072 102.96c0.03685 0 0.06633-0.0295 0.07124-0.0712l0.15722-0.99984-0.15722-1.0195c-0.0049-0.0418-0.03439-0.0713-0.07124-0.0713-0.03931 0-0.06878 0.0295-0.0737 0.0713l-0.13266 1.017 0.13266 0.99983c0.0074 0.0442 0.03685 0.0737 0.0737 0.0737z" fill="#fff"/>
   <path d="m88.544 99.939c-0.0049-0.05159-0.04422-0.09089-0.09089-0.09089-0.04668 0-0.08598 0.0393-0.09089 0.09089l-0.16951 1.953 0.16951 1.8818c0.0049 0.0516 0.04176 0.0884 0.09089 0.0884 0.04667 0 0.08598-0.0369 0.09089-0.0884l0.19162-1.8818-0.19162-1.953z" fill="#fff"/>
   <path d="m89.17 103.94c0.0565 0 0.10072-0.0467 0.10563-0.10563l0.18179-1.9407-0.18179-2.007c-0.0049-0.05896-0.05159-0.10563-0.10563-0.10563-0.0565 0-0.10318 0.04667-0.10563 0.10563l-0.15968 2.007 0.15968 1.9407c0.0049 0.0614 0.04913 0.10563 0.10563 0.10563z" fill="#fff"/>
   <path d="m89.893 103.97c0.06387 0 0.11792-0.0516 0.12283-0.12038l0.16951-1.9579-0.16951-1.8621c-0.0049-0.06878-0.0565-0.12037-0.12283-0.12037s-0.11792 0.05159-0.12037 0.12037l-0.15231 1.8621 0.15231 1.9579c0.0025 0.0688 0.0565 0.12038 0.12037 0.12038z" fill="#fff"/>
   <path d="m90.919 101.89-0.15968-3.0265c-0.0049-0.07615-0.06387-0.13757-0.13757-0.13757s-0.13266 0.06141-0.13757 0.13757l-0.14248 3.0265 0.14248 1.9579c0.0049 0.0762 0.06387 0.13757 0.13757 0.13757s0.13266-0.0614 0.13757-0.13757l0.15968-1.9579z" fill="#fff"/>
   <path d="m91.357 103.99c0.08107 0 0.1474-0.0663 0.15231-0.15231l0.14985-1.9456-0.14985-3.7193c-0.0049-0.08598-0.07124-0.15231-0.15231-0.15231-0.08352 0-0.14985 0.06633-0.15477 0.15231l-0.13266 3.7193 0.13266 1.9456c0.0049 0.086 0.07124 0.15231 0.15477 0.15231z" fill="#fff"/>
   <path d="m92.096 97.693c-0.09089 0-0.16459 0.0737-0.1695 0.1695l-0.12283 4.0313 0.12283 1.9235c0.0049 0.0934 0.07861 0.1695 0.1695 0.1695s0.16459-0.0737 0.16705-0.1695l0.14003-1.9235-0.14003-4.0313c-0.0025-0.09581-0.07615-0.1695-0.16705-0.1695z" fill="#fff"/>
   <path d="m92.843 103.99c0.10072 0 0.17933-0.0811 0.18424-0.18424l0.12774-1.9137-0.12774-4.1664c-0.0025-0.10318-0.08353-0.18424-0.18424-0.18424-0.10072 0-0.18179 0.08107-0.18179 0.18424l-0.11546 4.1664 0.11546 1.9137c0 0.10317 0.08107 0.18424 0.18179 0.18424z" fill="#fff"/>
   <path d="m93.595 103.99c0.10809 0 0.19653-0.0884 0.19898-0.19898v2e-3l0.11792-1.8965-0.11792-4.0608c-0.0025-0.113-0.0909-0.20144-0.19898-0.20144-0.10809 0-0.19653 0.08844-0.19898 0.20144l-0.10318 4.0608 0.10563 1.894c0.0025 0.113 0.08844 0.19898 0.19653 0.19898z" fill="#fff"/>
   <path d="m94.676 101.89-0.10809-3.9134c-0.0025-0.12037-0.09826-0.21618-0.21372-0.21618-0.11792 0-0.21127 0.09581-0.21372 0.21618l-0.09581 3.9109 0.09581 1.8842c0.0025 0.12037 0.09581 0.21618 0.21372 0.21618 0.11792 0 0.21127-0.0958 0.21372-0.21618v2e-3l0.10809-1.8842z" fill="#fff"/>
   <path d="m95.118 103.99c0.12529 0 0.22846-0.10317 0.22846-0.23092l0.09826-1.8695-0.09826-4.6553c-0.0025-0.12774-0.10563-0.23092-0.22846-0.23092-0.12529 0-0.22846 0.10318-0.23092 0.23092l-0.08598 4.6528 0.08598 1.8719c0.0025 0.12775 0.10563 0.23092 0.23092 0.23092z" fill="#fff"/>
   <path d="m95.879 96.571c-0.13511 0-0.2432 0.113-0.24566 0.24812l-0.10318 5.0778 0.10072 1.8424c0.0025 0.13511 0.11055 0.24566 0.24566 0.24566 0.13266 0 0.2432-0.11055 0.2432-0.24812v2e-3l0.11055-1.8424-0.11055-5.0778c0.0025-0.13757-0.11055-0.24812-0.24075-0.24812z" fill="#fff"/>
   <path d="m96.575 104c0.0049 0 6.1317 2e-3 6.1734 2e-3 1.2308 0 2.2281-1.0097 2.2281-2.2552s-0.99738-2.2527-2.2281-2.2527c-0.30462 0-0.59695 0.06142-0.86226 0.17442-0.17688-2.0316-1.8596-3.6259-3.9134-3.6259-0.50115 0-0.99247 0.10072-1.4224 0.27023-0.16951 0.06633-0.21372 0.13266-0.21372 0.26531v7.1536c-0.0025 0.14003 0.10318 0.25303 0.23829 0.26777z" fill="#fff"/>
   <circle cx="63.179" cy="100.02" r="15" fill="#4d4d4d"/>
   <path d="m54.473 100.02c0 3.4442 2.0021 6.424 4.9058 7.8341l-4.1517-11.377c-0.48395 1.0809-0.75418 2.2797-0.75418 3.5424zm14.582-0.43973c0-1.076-0.38814-1.8228-0.71733-2.4026-0.43973-0.71733-0.8549-1.3216-0.8549-2.0414 0-0.80085 0.60432-1.5452 1.4617-1.5452 0.03685 0 0.0737 0.0049 0.113 0.0074-1.5477-1.4199-3.6112-2.2846-5.8786-2.2846-3.0413 0-5.7165 1.5624-7.274 3.9232 0.2039 0.0074 0.39551 0.01228 0.5601 0.01228 0.9114 0 2.319-0.113 2.319-0.113 0.46921-0.02702 0.52326 0.66082 0.05405 0.71978 0 0-0.47167 0.05405-0.99492 0.08352l3.1715 9.4284 1.9039-5.714-1.356-3.7168c-0.46921-0.02702-0.91386-0.08352-0.91386-0.08352-0.46921-0.02948-0.41271-0.74435 0.0565-0.71978 0 0 1.4371 0.113 2.292 0.113 0.90894 0 2.3215-0.113 2.3215-0.113 0.46675-0.02702 0.52326 0.66083 0.05405 0.71978 0 0-0.47167 0.05404-0.99492 0.08352l3.1469 9.3572 0.86964-2.9012c0.43973-1.1325 0.66082-2.0685 0.66082-2.8128zm-5.7239 1.2013-2.6114 7.5909c0.77874 0.22847 1.6042 0.35375 2.4591 0.35375 1.0121 0 1.9849-0.17442 2.889-0.49377-0.02211-0.0369-0.04422-0.0762-0.06141-0.11792l-2.6752-7.333zm7.4853-4.9402c0.03931 0.2776 0.05896 0.57484 0.05896 0.89666 0 0.88192-0.16459 1.8744-0.66328 3.1174l-2.658 7.6867c2.5868-1.5084 4.3261-4.3113 4.3261-7.5246 0.0025-1.5133-0.38323-2.9356-1.0637-4.1762z" fill="#fff"/>
   <circle cx="30.437" cy="100.02" r="15" fill="#0cf"/>
   <path d="m38.524 101.87c0.12283-0.56748 0.18916-1.1546 0.18916-1.7565 0-4.5201-3.6652-8.1854-8.1854-8.1854-0.47658 0-0.94333 0.04176-1.4003 0.12037-0.73207-0.46184-1.5968-0.72961-2.5254-0.72961-2.6212 0-4.7462 2.125-4.7462 4.7486 0 0.87701 0.23829 1.6951 0.65346 2.4026-0.10809 0.53063-0.16459 1.0834-0.16459 1.6459 0 4.5226 3.6652 8.1878 8.1854 8.1878 0.51343 0 1.0121-0.0467 1.4985-0.13757 0.6682 0.35867 1.4322 0.56502 2.2429 0.56502 2.6212 0 4.7462-2.125 4.7462-4.7486 0-0.76154-0.17688-1.4789-0.49378-2.1127zm-3.7979 2.1544c-0.37832 0.53553-0.93842 0.96053-1.6631 1.2627-0.71733 0.29725-1.5771 0.44956-2.5573 0.44956-1.1767 0-2.1618-0.20636-2.9307-0.61415-0.55028-0.29725-1.0023-0.70013-1.3487-1.1988-0.34638-0.50115-0.52326-0.99738-0.52326-1.4789 0-0.2997 0.11546-0.55765 0.34147-0.77137 0.22355-0.21127 0.51097-0.3169 0.8549-0.3169 0.28251 0 0.52326 0.0835 0.72224 0.25057 0.18916 0.15968 0.34884 0.39797 0.47904 0.70259 0.14494 0.3341 0.30216 0.61415 0.46921 0.83279 0.16214 0.21372 0.39306 0.39305 0.68785 0.53308 0.29725 0.14003 0.69767 0.21127 1.189 0.21127 0.67556 0 1.2308-0.14494 1.6484-0.42991 0.4078-0.27759 0.60432-0.61415 0.60432-1.0219 0-0.32182-0.10318-0.5773-0.3169-0.77629-0.22355-0.20881-0.51589-0.36849-0.87209-0.48149-0.37095-0.11546-0.87701-0.24075-1.501-0.37341-0.84998-0.18178-1.5722-0.39797-2.1446-0.64117-0.58713-0.24812-1.0613-0.5945-1.4052-1.0293-0.35129-0.43973-0.53063-0.99247-0.53063-1.641 0-0.61906 0.1867-1.1767 0.55519-1.6557 0.36603-0.47904 0.90157-0.84998 1.5894-1.103 0.68048-0.25057 1.4862-0.37832 2.4026-0.37832 0.72961 0 1.3732 0.08598 1.9088 0.25057 0.54045 0.16705 0.99492 0.39551 1.3511 0.67311 0.35866 0.28251 0.62889 0.58221 0.79594 0.8942 0.1695 0.3169 0.25549 0.62889 0.25549 0.93351 0 0.29234-0.113 0.55765-0.33655 0.78857-0.22355 0.23338-0.50606 0.35129-0.84016 0.35129-0.30216 0-0.54045-0.07615-0.70504-0.22109-0.15231-0.13511-0.31199-0.34884-0.48886-0.651-0.2039-0.38814-0.45201-0.69276-0.73452-0.90894-0.27514-0.21127-0.73452-0.3169-1.3683-0.3169-0.58467 0-1.0637 0.11792-1.4175 0.35129-0.34147 0.22355-0.50852 0.47904-0.50852 0.78366 0 0.1867 0.05404 0.34147 0.16459 0.47658 0.11546 0.14248 0.28005 0.26531 0.48641 0.37095 0.21618 0.10809 0.43727 0.19407 0.65837 0.25549 0.22601 0.06387 0.60924 0.15722 1.1325 0.2776 0.66328 0.14248 1.2701 0.30216 1.8105 0.47412 0.54536 0.17442 1.0146 0.38814 1.4003 0.63872 0.3906 0.25548 0.70259 0.58222 0.92122 0.97282 0.22109 0.39305 0.3341 0.87946 0.3341 1.442 0.0049 0.68048-0.18916 1.2946-0.56993 1.8326z" fill="#fff"/>
   <circle cx="128.66" cy="66.46" r="15" fill="#fc0"/>
   <polygon transform="matrix(.24566 0 0 .24566 60.419 -23.985)" points="257.69 399.3 302.46 399.3 302.85 399.3 303.05 398.96 312.65 382.17 313.23 381.16 312.06 381.16 267.29 381.16 266.89 381.16 266.7 381.5 257.1 398.28 256.52 399.3" fill="#fff"/>
   <polygon transform="matrix(.24566 0 0 .24566 60.419 -23.985)" points="312.65 376.16 290.26 337.38 290.07 337.03 289.68 337.03 270.34 337.12 269.17 337.12 269.75 338.13 292.14 376.91 292.34 377.26 292.73 377.26 312.06 377.17 313.23 377.17" fill="#fff"/>
   <polygon transform="matrix(.24566 0 0 .24566 60.419 -23.985)" points="242.56 378.94 242.37 379.27 242.56 379.62 252.3 396.32 252.89 397.33 253.47 396.32 275.86 357.54 276.06 357.2 275.86 356.86 266.12 340.15 265.53 339.15 264.95 340.16" fill="#fff"/>
   <circle cx="95.921" cy="66.46" r="15" fill="#f00"/>
   <path d="m99.299 66.467-5.6993 3.3483v-6.6967l5.6993 3.3483zm5.3259 3.1051v-6.225s0-2.9995-3.002-2.9995h-11.408s-2.9995 0-2.9995 2.9995v6.225s0 2.9995 2.9995 2.9995h11.408s3.002 0 3.002-2.9995" fill="#fff"/>
   <circle cx="63.179" cy="66.46" r="15" fill="#55d400"/>
   <path d="m62.332 57.822c-5.5519 0.54291-9.652 7.0627-6.338 12.855-0.49869 1.4936-1.0465 2.9406-1.5182 4.4636 0.81805-0.19653 1.5182-0.45693 2.3215-0.71487 0.73207-0.23583 1.6852-0.75663 2.4099-0.71487 0.51834 0.02948 1.0711 0.48395 1.5182 0.62398 5.9155 1.8498 11.173-2.7023 11.16-8.124-0.01474-5.1368-4.3113-8.9003-9.5537-8.3893zm3.1248 12.676c-2.3092-0.10563-5.4831-3.0241-6.2496-5.1785-0.45447-1.2774 0.06878-3.7217 2.0537-3.1248 0.5036 1.0514 1.2799 2.604 0 3.3041 0.651 1.3732 1.7245 2.3239 3.1248 2.9455 0.46675-0.30708 0.77137-0.77628 1.1595-1.162 0.81314 0.3169 1.5722 0.6903 2.233 1.162 0.06878 1.5378-1.2258 2.1053-2.3215 2.0537z" fill="#fff"/>
   <circle cx="30.437" cy="66.46" r="15" fill="#f60"/>
   <path d="m38.387 65.099-0.13511-0.28005-0.22601-0.17688c-0.29479-0.23092-1.7859 0.0172-2.1888-0.34884-0.28497-0.26286-0.32673-0.73698-0.41271-1.3732-0.15968-1.2381-0.26286-1.3045-0.45693-1.7221-0.70259-1.4912-2.6065-2.6138-3.9158-2.7686h-3.5449c-2.7907 0-5.068 2.2871-5.068 5.0753v5.9179c0 2.7833 2.2797 5.0631 5.068 5.0631h5.8271c2.7882 0 5.0532-2.2797 5.068-5.0631l0.03194-4.1001-0.04668-0.22355zm-10.814-2.5205h2.8104c0.53554 0 0.97036 0.43482 0.97036 0.96544s-0.43482 0.97036-0.97036 0.97036h-2.8104c-0.53554 0-0.97036-0.43973-0.97036-0.97036s0.43236-0.96544 0.97036-0.96544zm5.7116 7.7358h-5.7116c-0.53554 0-0.97036-0.43973-0.97036-0.96544 0-0.53062 0.43482-0.96544 0.97036-0.96544h5.7116c0.53308 0 0.96544 0.43482 0.96544 0.96544 0 0.52571-0.43236 0.96544-0.96544 0.96544z" fill="#fff"/>
  </g>
 </g>
</svg>
