<?xml version='1.0' encoding='utf-8'?>
<svg xmlns="http://www.w3.org/2000/svg" enable-background="new 681 -350.7 2153.6 1493.7" version="1.1" viewBox="681 -350.7 2153.6 1493.7">
<style type="text/css">
	.st0{fill:#D0D0D2;}
	.st1{fill:#B3B7B7;}
	.st2{opacity:0.8706;fill:url(#f);enable-background:new    ;}
	.st3{fill:#1B698C;}
	.st4{opacity:0.54;fill:none;stroke:#65B8DE;stroke-width:3;stroke-miterlimit:10;}
	.st5{fill:#1B70A0;}
	.st6{opacity:0.1642;fill:url(#e);enable-background:new    ;}
	.st7{opacity:0.2637;fill:url(#d);enable-background:new    ;}
	.st8{fill:#65B8DE;}
	.st9{fill:#00447F;}
	.st10{fill:#FFC42A;}
	.st11{fill:#5FC5F2;}
	.st12{fill:#E5BC9C;}
	.st13{fill:#FFFFFF;}
</style>
		<path class="st0" d="m1373.4-225l1163.2-136.2c25.6-3 48.9 16.5 52.1 43.6l92.8 792.9c3.2 27.1-15 51.4-40.6 54.5l-1163.1 136.1c-25.6 3-48.9-16.5-52.1-43.6l-92.8-792.9c-3.2-27.2 14.9-51.5 40.5-54.4z"/>
		<path class="st1" d="m1472.8 667.1c-10.9 0.1-21.4-3.8-30.2-11-10.1-8.4-16.4-20.4-18-33.7l-92.8-792.9c-3.3-27.6 15.4-52.5 41.4-55.6l1163.2-136.2c12.7-1.5 25.1 2.3 35.2 10.8 10.1 8.4 16.4 20.4 18 33.7l92.8 792.9c1.6 13.4-1.8 26.5-9.7 37-7.8 10.5-19.1 17.1-31.8 18.6l-1163.1 136.2c-1.6 0.1-3.3 0.2-5 0.2zm-99.3-891.1c-25 3-42.8 26.9-39.7 53.4l92.8 792.9c1.5 12.8 7.7 24.4 17.3 32.4s21.6 11.7 33.7 10.3l1163.2-136.2c12.1-1.4 22.9-7.7 30.4-17.8 7.5-10 10.9-22.7 9.3-35.6l-92.8-792.9c-1.5-12.8-7.7-24.4-17.3-32.4-9.7-8-21.6-11.7-33.7-10.3l-1163.2 136.2z"/>
		<path d="m1374.1-216.7l1161.7-136.1c21.8-2.5 41.4 13 43.9 34.7l92.9 793.5c2.5 21.8-13 41.4-34.7 43.9l-1161.7 136.2c-21.8 2.5-41.4-13-43.9-34.7l-92.9-793.5c-2.6-21.7 13-41.4 34.7-44z"/>
		<path d="m1471.8 656.3c-9.1 0.1-17.8-3-25.1-8.6-8.4-6.6-13.7-16.2-15-26.8l-92.9-793.5c-2.5-22 13.2-42 35.2-44.5l1161.6-136.1c10.7-1.3 21.1 1.8 29.6 8.4 8.4 6.6 13.7 16.2 15 26.8l92.9 793.5c1.3 10.7-1.8 21.1-8.4 29.6-6.6 8.4-16.2 13.7-26.8 15l-1161.7 136c-1.4 0.1-2.9 0.2-4.4 0.2zm-97.6-872.5c-21.4 2.5-36.9 21.9-34.3 43.4l92.9 793.5c1.2 10.4 6.4 19.7 14.6 26.1s18.5 9.4 28.9 8.1l1161.7-136.1c10.4-1.2 19.7-6.4 26.1-14.6s9.4-18.5 8.1-28.9l-93.1-793.3c-1.2-10.4-6.4-19.7-14.6-26.1s-18.5-9.4-28.9-8.1l-1161.4 136z"/>
		<linearGradient id="f" x1="1485.2" x2="2606.1" y1="683.07" y2="683.07" gradientTransform="matrix(.9932 -.1163 -.1156 -.9869 47.989 1040.2)" gradientUnits="userSpaceOnUse">
		<stop stop-color="#6AC2FF" offset="0"/>
		<stop stop-color="#0087BF" offset="1"/>
	</linearGradient>
	<polygon class="st2" points="1402.8 -159.8 2516 -290.2 2598.7 416.2 1485.5 546.6"/>
<rect class="st3" transform="matrix(.9922 -.1244 .1244 .9922 10.845 290.29)" x="2178.4" y="-58.2" width="301.3" height="233.1"/>
<line class="st4" x1="2189.2" x2="2488.2" y1="153.8" y2="116.3"/>
<line class="st4" x1="2183.8" x2="2482.8" y1="110.8" y2="73.3"/>
<line class="st4" x1="2178.4" x2="2477.4" y1="67.7" y2="30.2"/>
<line class="st4" x1="2173" x2="2472" y1="24.7" y2="-12.8"/>
<line class="st4" x1="2167.6" x2="2466.6" y1="-18.4" y2="-55.9"/>
<rect class="st5" transform="matrix(.9922 -.1244 .1244 .9922 2.5823 247.57)" x="1839.4" y="-12.1" width="287.3" height="230.4"/>
<radialGradient id="e" cx="2342.1" cy="981.59" r="8.0898" gradientTransform="matrix(1.2478 -.1461 -.1388 -1.1853 -830.4 1281.8)" gradientUnits="userSpaceOnUse">
	<stop stop-color="#fff" offset="0"/>
	<stop stop-opacity="0" offset="1"/>
</radialGradient>
<path class="st6" d="m1965.6-227.1c0.6 5.3-3.4 10.1-8.9 10.8-5.6 0.6-10.6-3.1-11.3-8.4-0.6-5.3 3.4-10.1 8.9-10.8 5.6-0.7 10.7 3.1 11.3 8.4z"/>
<linearGradient id="d" x1="2171.6" x2="2493.4" y1="987.72" y2="190.44" gradientTransform="matrix(1.0024 -.1174 -.1171 -.999 10.513 1055.7)" gradientUnits="userSpaceOnUse">
	<stop stop-color="#fff" offset="0"/>
	<stop stop-opacity="0" offset="1"/>
</linearGradient>
<path class="st7" d="m2310.4-332.2l-380.2 943.1 739.9-84.1s-92-805.9-97.2-841.7c-5.5-37.5-22.4-44.3-55.4-40.9-34.5 3.5-207.1 23.6-207.1 23.6z"/>
<rect class="st8" transform="matrix(.9932 -.1163 .1163 .9932 26.902 247.56)" x="1811.8" y="-147.2" width="645.6" height="80.9"/>
	<circle class="st9" cx="1879.9" cy="403.2" r="50"/>
	<polygon class="st10" points="1910.6 393 1885.7 395.9 1882.8 371 1869.7 372.6 1872.6 397.5 1847.7 400.4 1849.3 413.5 1874.1 410.6 1877 435.5 1890.2 434 1887.2 409 1912.1 406.1"/>
<path class="st5" d="m2136.2 373.2l-196.1 22.9c-1.7 0.2-3.2-1-3.4-2.7l-5.2-44.3c-0.2-1.7 1-3.2 2.7-3.4l196.1-22.9c1.7-0.2 3.2 1 3.4 2.7l5.2 44.3c0.2 1.7-1 3.2-2.7 3.4z"/>
<polygon class="st11" points="2122 355.6 2115.1 350.1 2120.5 343.3 2116.9 340.4 2111.5 347.4 2104.6 341.9 2101.7 345.5 2108.6 351 2103.1 357.8 2106.8 360.7 2112.2 353.8 2119.1 359.2"/>
<path class="st5" d="m2257.1 359l-108.4 12.7c-1.7 0.2-3.2-1-3.4-2.7l-5.2-44.3c-0.2-1.7 1-3.2 2.7-3.4l108.4-12.7c1.7-0.2 3.2 1 3.4 2.7l5.2 44.3c0.2 1.7-1 3.2-2.7 3.4z"/>
<polygon class="st11" points="2242.9 341.4 2236 336 2241.4 329.1 2237.8 326.3 2232.4 333.2 2225.5 327.7 2222.7 331.4 2229.5 336.8 2224.1 343.7 2227.7 346.5 2233.2 339.6 2240 345.1"/>
<path class="st5" d="m2434.9 338.2l-165.3 19.4c-1.7 0.2-3.2-1-3.4-2.7l-5.2-44.2c-0.2-1.7 1-3.2 2.7-3.4l165.3-19.3c1.7-0.2 3.2 1 3.4 2.7l5.2 44.3c0.2 1.5-1 3-2.7 3.2z"/>
<polygon class="st11" points="2420.7 320.6 2413.8 315.3 2419.2 308.3 2415.6 305.4 2410.1 312.4 2403.3 306.9 2400.4 310.5 2407.3 316 2401.9 322.8 2405.5 325.7 2410.9 318.9 2417.8 324.2"/>
<path class="st5" d="m2292.2 412.3l-165.3 19.4c-1.7 0.2-3.2-1-3.4-2.7l-5.2-44.3c-0.2-1.7 1-3.2 2.7-3.4l165.3-19.4c1.7-0.2 3.2 1 3.4 2.7l5.2 44.3c0.3 1.7-1 3.3-2.7 3.4z"/>
<polygon class="st11" points="2278 394.7 2271.1 389.4 2276.5 382.4 2272.9 379.5 2267.5 386.5 2260.6 381 2257.7 384.6 2264.6 390.1 2259.2 396.9 2262.8 399.8 2268.2 393 2275.1 398.4"/>
<path class="st5" d="m2112.1 433.5l-165.3 19.4c-1.7 0.2-3.2-1-3.4-2.7l-5.2-44.3c-0.2-1.7 1-3.2 2.7-3.4l165.3-19.4c1.7-0.2 3.2 1 3.4 2.7l5.2 44.3c0.2 1.7-1 3.2-2.7 3.4z"/>
<polygon class="st11" points="2097.9 415.9 2091 410.4 2096.4 403.6 2092.8 400.7 2087.3 407.5 2080.5 402.1 2077.6 405.8 2084.5 411.1 2079 418.1 2082.6 421 2088.1 414 2095 419.5"/>
<rect class="st11" transform="matrix(.9932 -.1163 .1163 .9932 -28.422 236.63)" x="1944.8" y="355.1" width="136.8" height="13.5"/>
<rect class="st11" transform="matrix(.9932 -.1163 .1163 .9932 -24.978 256.13)" x="2158" y="335.3" width="48" height="13.5"/>
<rect class="st11" transform="matrix(.9932 -.1163 .1163 .9932 -21.989 273.09)" x="2274.3" y="318.2" width="109" height="13.5"/>
<rect class="st11" transform="matrix(.9932 -.1163 .1163 .9932 -31.522 257.29)" x="2131.5" y="392" width="114.2" height="13.5"/>
<rect class="st11" transform="matrix(.9932 -.1163 .1163 .9932 -35.191 236.49)" x="1951.6" y="413" width="114.2" height="13.5"/>
<path class="st12" d="m1467 61.1c-20.2-3.4-32.9 9-45.5 22-17.7 18.3-37 40.7-58.5 54.7-2.1-32.8-4.3-65.5-6.4-98.3-0.2-3.2-0.5-6.6-2.6-9.1-5.4-6.7-25.6 9.1-31 12-35.2 19.9-69.2 41.5-104.4 61.5-12.9 7.3-27.4 11.8-41.3 17.3-22.9 9.1-36 25.2-38.6 50.3-3.4 33.2-12.4 65.1-23.6 96.6-7.2 19.9-11.2 41-16.3 61.5-35.7 144.2-80.3 286.1-130.9 425.8-43 118.9-118 250.3-113.5 379.5 4.2 3.2 8.4 6.1 12.6 8.8l402.1-2.6c-32.9-140.4-71.5-316.8-14.3-449.1 0.8-1.8 1.6-3.6 2.5-5.3 17.5-35.2 51.8-60.3 65-101.8 6.6-20.8 11-42.3 16.6-63.4 1-3.7 2.2-7.6 4.2-10.7 16.4-24.5 25.7-51.9 33.3-80 4.5-16.4 3.2-32.3 1.5-48.8-2.3-21.7 2.7-42.9 9.7-63.4 7.3-21.4 17.9-40.9 33.2-58 16.2-18 31.8-36.5 46.5-55.5 7.6-9.8 14.2-20.9 19.2-32.3 7.5-16.9 14.7-34.3 19.6-52.1 7.3-27.1-11.7-55-39.1-59.6z"/>
	<line class="st8" x1="1858.4" x2="2092" y1="37.9" y2="8.7"/>
	<path class="st8" d="m2090.2 15.8l-3.4 0.4c-2.6 0.3-5.1-2.5-5.6-6.2-0.5-3.8 1.3-7.1 3.9-7.4l3.4-0.4c2.6-0.3 5.1 2.5 5.6 6.2 0.4 3.8-1.3 7.1-3.9 7.4zm-20.7 2.6l-3.4 0.4c-2.6 0.3-5.1-2.5-5.6-6.2s1.3-7.1 3.9-7.4l3.4-0.4c2.6-0.3 5.1 2.5 5.6 6.2 0.4 3.7-1.3 7.1-3.9 7.4zm-20.7 2.6l-3.4 0.4c-2.6 0.3-5.1-2.5-5.6-6.2-0.5-3.8 1.3-7.1 3.9-7.4l3.4-0.4c2.6-0.3 5.1 2.5 5.6 6.2s-1.3 7.1-3.9 7.4zm-20.7 2.6l-3.4 0.4c-2.6 0.3-5.1-2.5-5.6-6.2-0.5-3.8 1.3-7.1 3.9-7.4l3.4-0.4c2.6-0.3 5.1 2.5 5.6 6.2s-1.3 7.1-3.9 7.4zm-20.7 2.6l-3.4 0.4c-2.6 0.3-5.1-2.5-5.6-6.2-0.5-3.8 1.3-7.1 3.9-7.4l3.4-0.4c2.6-0.3 5.1 2.5 5.6 6.2s-1.2 7-3.9 7.4zm-20.6 2.6l-3.4 0.4c-2.6 0.3-5.1-2.5-5.6-6.2-0.5-3.8 1.3-7.1 3.9-7.4l3.4-0.4c2.6-0.3 5.1 2.5 5.6 6.2 0.4 3.7-1.3 7-3.9 7.4zm-20.7 2.6l-3.4 0.4c-2.6 0.3-5.1-2.5-5.6-6.2-0.5-3.8 1.3-7.1 3.9-7.4l3.4-0.4c2.6-0.3 5.1 2.5 5.6 6.2 0.4 3.7-1.3 7-3.9 7.4zm-20.7 2.6l-3.4 0.4c-2.6 0.3-5.1-2.5-5.6-6.2-0.5-3.8 1.3-7.1 3.9-7.4l3.4-0.4c2.6-0.3 5.1 2.5 5.6 6.2s-1.3 7-3.9 7.4zm-20.7 2.5l-3.4 0.4c-2.6 0.3-5.1-2.5-5.6-6.2-0.5-3.8 1.3-7.1 3.9-7.4l3.4-0.4c2.6-0.3 5.1 2.5 5.6 6.2 0.5 3.8-1.3 7.1-3.9 7.4zm-20.6 2.6l-3.4 0.4c-2.6 0.3-5.1-2.5-5.6-6.2s1.3-7.1 3.9-7.4l3.4-0.4c2.6-0.3 5.1 2.5 5.6 6.2 0.4 3.8-1.3 7.1-3.9 7.4zm-20.7 2.6l-3.4 0.4c-2.6 0.3-5.1-2.5-5.6-6.2-0.5-3.8 1.3-7.1 3.9-7.4l3.4-0.4c2.6-0.3 5.1 2.5 5.6 6.2s-1.3 7.1-3.9 7.4zm-20.7 2.6l-3.4 0.4c-2.6 0.3-5.1-2.5-5.6-6.2-0.5-3.8 1.3-7.1 3.9-7.4l3.4-0.4c2.6-0.3 5.1 2.5 5.6 6.2 0.4 3.8-1.3 7.1-3.9 7.4z"/>
	<line class="st8" x1="1861.3" x2="2094.9" y1="61.1" y2="31.8"/>
	<path class="st8" d="m2093.1 38.9l-3.4 0.4c-2.6 0.3-5.1-2.5-5.6-6.2s1.3-7.1 3.9-7.4l3.4-0.4c2.6-0.3 5.1 2.5 5.6 6.2 0.4 3.8-1.3 7.1-3.9 7.4zm-20.7 2.6l-3.4 0.4c-2.6 0.3-5.1-2.5-5.6-6.2s1.3-7.1 3.9-7.4l3.4-0.4c2.6-0.3 5.1 2.5 5.6 6.2s-1.3 7.1-3.9 7.4zm-20.7 2.6l-3.4 0.4c-2.6 0.3-5.1-2.5-5.6-6.2-0.5-3.8 1.3-7.1 3.9-7.4l3.4-0.4c2.6-0.3 5.1 2.5 5.6 6.2 0.5 3.8-1.3 7.1-3.9 7.4zm-20.7 2.6l-3.4 0.4c-2.6 0.3-5.1-2.5-5.6-6.2-0.5-3.8 1.3-7.1 3.9-7.4l3.4-0.4c2.6-0.3 5.1 2.5 5.6 6.2s-1.3 7.1-3.9 7.4zm-20.7 2.6l-3.4 0.4c-2.6 0.3-5.1-2.5-5.6-6.2s1.3-7.1 3.9-7.4l3.4-0.4c2.6-0.3 5.1 2.5 5.6 6.2s-1.2 7.1-3.9 7.4zm-20.6 2.6l-3.4 0.4c-2.6 0.3-5.1-2.5-5.6-6.2-0.5-3.8 1.3-7.1 3.9-7.4l3.4-0.4c2.6-0.3 5.1 2.5 5.6 6.2s-1.3 7-3.9 7.4zm-20.7 2.6l-3.4 0.4c-2.6 0.3-5.1-2.5-5.6-6.2-0.5-3.8 1.3-7.1 3.9-7.4l3.4-0.4c2.6-0.3 5.1 2.5 5.6 6.2 0.4 3.7-1.3 7-3.9 7.4zm-20.7 2.6l-3.4 0.4c-2.6 0.3-5.1-2.5-5.6-6.2-0.5-3.8 1.3-7.1 3.9-7.4l3.4-0.4c2.6-0.3 5.1 2.5 5.6 6.2s-1.3 7-3.9 7.4zm-20.7 2.6l-3.4 0.4c-2.6 0.3-5.1-2.5-5.6-6.2-0.5-3.8 1.3-7.1 3.9-7.4l3.4-0.4c2.6-0.3 5.1 2.5 5.6 6.2s-1.3 7-3.9 7.4zm-20.7 2.5l-3.4 0.4c-2.6 0.3-5.1-2.5-5.6-6.2-0.5-3.8 1.3-7.1 3.9-7.4l3.4-0.4c2.6-0.3 5.1 2.5 5.6 6.2 0.5 3.8-1.2 7.1-3.9 7.4zm-20.6 2.6l-3.4 0.4c-2.6 0.3-5.1-2.5-5.6-6.2s1.3-7.1 3.9-7.4l3.4-0.4c2.6-0.3 5.1 2.5 5.6 6.2 0.4 3.8-1.3 7.1-3.9 7.4zm-20.7 2.6l-3.4 0.4c-2.6 0.3-5.1-2.5-5.6-6.2-0.5-3.8 1.3-7.1 3.9-7.4l3.4-0.4c2.6-0.3 5.1 2.5 5.6 6.2 0.4 3.8-1.3 7.1-3.9 7.4z"/>
	<line class="st8" x1="1864.2" x2="2097.8" y1="84.2" y2="54.9"/>
	<path class="st8" d="m2096 62l-3.4 0.4c-2.6 0.3-5.1-2.5-5.6-6.2s1.3-7.1 3.9-7.4l3.4-0.4c2.6-0.3 5.1 2.5 5.6 6.2 0.4 3.8-1.3 7.1-3.9 7.4zm-20.7 2.6l-3.4 0.4c-2.6 0.3-5.1-2.5-5.6-6.2-0.5-3.8 1.3-7.1 3.9-7.4l3.4-0.4c2.6-0.3 5.1 2.5 5.6 6.2s-1.3 7.1-3.9 7.4zm-20.7 2.6l-3.4 0.4c-2.6 0.3-5.1-2.5-5.6-6.2-0.5-3.8 1.3-7.1 3.9-7.4l3.4-0.4c2.6-0.3 5.1 2.5 5.6 6.2 0.5 3.8-1.3 7.1-3.9 7.4zm-20.7 2.6l-3.4 0.4c-2.6 0.3-5.1-2.5-5.6-6.2-0.5-3.8 1.3-7.1 3.9-7.4l3.4-0.4c2.6-0.3 5.1 2.5 5.6 6.2 0.5 3.8-1.3 7.1-3.9 7.4zm-20.7 2.6l-3.4 0.4c-2.6 0.3-5.1-2.5-5.6-6.2-0.5-3.8 1.3-7.1 3.9-7.4l3.4-0.4c2.6-0.3 5.1 2.5 5.6 6.2s-1.2 7.1-3.9 7.4zm-20.6 2.6l-3.4 0.4c-2.6 0.3-5.1-2.5-5.6-6.2-0.5-3.8 1.3-7.1 3.9-7.4l3.4-0.4c2.6-0.3 5.1 2.5 5.6 6.2 0.4 3.7-1.3 7.1-3.9 7.4zm-20.7 2.6l-3.4 0.4c-2.6 0.3-5.1-2.5-5.6-6.2-0.5-3.8 1.3-7.1 3.9-7.4l3.4-0.4c2.6-0.3 5.1 2.5 5.6 6.2 0.4 3.7-1.3 7.1-3.9 7.4zm-20.7 2.6l-3.4 0.4c-2.6 0.3-5.1-2.5-5.6-6.2-0.5-3.8 1.3-7.1 3.9-7.4l3.4-0.4c2.6-0.3 5.1 2.5 5.6 6.2s-1.3 7-3.9 7.4zm-20.7 2.6l-3.4 0.4c-2.6 0.3-5.1-2.5-5.6-6.2-0.5-3.8 1.3-7.1 3.9-7.4l3.4-0.4c2.6-0.3 5.1 2.5 5.6 6.2s-1.3 7-3.9 7.4zm-20.7 2.6l-3.4 0.4c-2.6 0.3-5.1-2.5-5.6-6.2-0.5-3.8 1.3-7.1 3.9-7.4l3.4-0.4c2.6-0.3 5.1 2.5 5.6 6.2s-1.2 7-3.9 7.4zm-20.6 2.6l-3.4 0.4c-2.6 0.3-5.1-2.5-5.6-6.2-0.5-3.8 1.3-7.1 3.9-7.4l3.4-0.4c2.6-0.3 5.1 2.5 5.6 6.2 0.4 3.7-1.3 7-3.9 7.4zm-20.7 2.5l-3.5 0.5c-2.6 0.3-5.1-2.5-5.6-6.2-0.5-3.8 1.3-7.1 3.9-7.4l3.4-0.4c2.6-0.3 5.1 2.5 5.6 6.2s-1.2 7-3.8 7.3z"/>
	<line class="st8" x1="1867.1" x2="2100.7" y1="107.3" y2="78"/>
	<path class="st8" d="m2098.9 85.1l-3.4 0.4c-2.6 0.3-5.1-2.5-5.6-6.2-0.5-3.8 1.3-7.1 3.9-7.4l3.4-0.4c2.6-0.3 5.1 2.5 5.6 6.2 0.4 3.8-1.3 7.1-3.9 7.4zm-20.7 2.6l-3.4 0.4c-2.6 0.3-5.1-2.5-5.6-6.2-0.5-3.8 1.3-7.1 3.9-7.4l3.4-0.4c2.6-0.3 5.1 2.5 5.6 6.2 0.4 3.8-1.3 7.1-3.9 7.4zm-20.7 2.6l-3.4 0.4c-2.6 0.3-5.1-2.5-5.6-6.2-0.5-3.8 1.3-7.1 3.9-7.4l3.4-0.4c2.6-0.3 5.1 2.5 5.6 6.2 0.4 3.8-1.3 7.1-3.9 7.4zm-20.7 2.6l-3.4 0.4c-2.6 0.3-5.1-2.5-5.6-6.2-0.5-3.8 1.3-7.1 3.9-7.4l3.4-0.4c2.6-0.3 5.1 2.5 5.6 6.2 0.5 3.8-1.3 7.1-3.9 7.4zm-20.7 2.6l-3.4 0.4c-2.6 0.3-5.1-2.5-5.6-6.2-0.5-3.8 1.3-7.1 3.9-7.4l3.4-0.4c2.6-0.3 5.1 2.5 5.6 6.2 0.5 3.8-1.2 7.1-3.9 7.4zm-20.6 2.6l-3.4 0.4c-2.6 0.3-5.1-2.5-5.6-6.2-0.5-3.8 1.3-7.1 3.9-7.4l3.4-0.4c2.6-0.3 5.1 2.5 5.6 6.2 0.4 3.7-1.3 7.1-3.9 7.4zm-20.7 2.6l-3.4 0.4c-2.6 0.3-5.1-2.5-5.6-6.2-0.5-3.8 1.3-7.1 3.9-7.4l3.4-0.4c2.6-0.3 5.1 2.5 5.6 6.2 0.4 3.7-1.3 7.1-3.9 7.4zm-20.7 2.6l-3.4 0.4c-2.6 0.3-5.1-2.5-5.6-6.2-0.5-3.8 1.3-7.1 3.9-7.4l3.4-0.4c2.6-0.3 5.1 2.5 5.6 6.2s-1.3 7.1-3.9 7.4zm-20.7 2.6l-3.4 0.4c-2.6 0.3-5.1-2.5-5.6-6.2-0.5-3.8 1.3-7.1 3.9-7.4l3.4-0.4c2.6-0.3 5.1 2.5 5.6 6.2s-1.3 7-3.9 7.4zm-20.7 2.6l-3.4 0.4c-2.6 0.3-5.1-2.5-5.6-6.2-0.5-3.8 1.3-7.1 3.9-7.4l3.4-0.4c2.6-0.3 5.1 2.5 5.6 6.2s-1.2 7-3.9 7.4zm-20.6 2.6l-3.4 0.4c-2.6 0.3-5.1-2.5-5.6-6.2-0.5-3.8 1.3-7.1 3.9-7.4l3.4-0.4c2.6-0.3 5.1 2.5 5.6 6.2 0.4 3.7-1.3 7-3.9 7.4zm-20.7 2.6l-3.4 0.4c-2.6 0.3-5.1-2.5-5.6-6.2-0.5-3.8 1.3-7.1 3.9-7.4l3.4-0.4c2.6-0.3 5.1 2.5 5.6 6.2 0.4 3.7-1.3 7-3.9 7.4z"/>
	<line class="st8" x1="1870" x2="2103.6" y1="130.4" y2="101.1"/>
	<path class="st8" d="m2101.7 108.2l-3.4 0.4c-2.6 0.3-5.1-2.5-5.6-6.2-0.5-3.8 1.3-7.1 3.9-7.4l3.4-0.4c2.6-0.3 5.1 2.5 5.6 6.2 0.5 3.8-1.2 7.1-3.9 7.4zm-20.6 2.6l-3.4 0.4c-2.6 0.3-5.1-2.5-5.6-6.2-0.5-3.8 1.3-7.1 3.9-7.4l3.4-0.4c2.6-0.3 5.1 2.5 5.6 6.2 0.4 3.8-1.3 7.1-3.9 7.4zm-20.7 2.6l-3.4 0.4c-2.6 0.3-5.1-2.5-5.6-6.2-0.5-3.8 1.3-7.1 3.9-7.4l3.4-0.4c2.6-0.3 5.1 2.5 5.6 6.2 0.4 3.8-1.3 7.1-3.9 7.4zm-20.7 2.6l-3.4 0.4c-2.6 0.3-5.1-2.5-5.6-6.2-0.5-3.8 1.3-7.1 3.9-7.4l3.4-0.4c2.6-0.3 5.1 2.5 5.6 6.2 0.5 3.8-1.3 7.1-3.9 7.4zm-20.7 2.6l-3.4 0.4c-2.6 0.3-5.1-2.5-5.6-6.2-0.5-3.8 1.3-7.1 3.9-7.4l3.4-0.4c2.6-0.3 5.1 2.5 5.6 6.2 0.5 3.8-1.2 7.1-3.9 7.4zm-20.6 2.6l-3.4 0.4c-2.6 0.3-5.1-2.5-5.6-6.2-0.5-3.8 1.3-7.1 3.9-7.4l3.4-0.4c2.6-0.3 5.1 2.5 5.6 6.2 0.4 3.8-1.3 7.1-3.9 7.4zm-20.7 2.6l-3.4 0.4c-2.6 0.3-5.1-2.5-5.6-6.2-0.5-3.8 1.3-7.1 3.9-7.4l3.4-0.4c2.6-0.3 5.1 2.5 5.6 6.2 0.4 3.8-1.3 7.1-3.9 7.4zm-20.7 2.6l-3.4 0.4c-2.6 0.3-5.1-2.5-5.6-6.2-0.5-3.8 1.3-7.1 3.9-7.4l3.4-0.4c2.6-0.3 5.1 2.5 5.6 6.2s-1.3 7.1-3.9 7.4zm-20.7 2.6l-3.4 0.4c-2.6 0.3-5.1-2.5-5.6-6.2-0.5-3.8 1.3-7.1 3.9-7.4l3.4-0.4c2.6-0.3 5.1 2.5 5.6 6.2s-1.3 7.1-3.9 7.4zm-20.7 2.6l-3.4 0.4c-2.6 0.3-5.1-2.5-5.6-6.2-0.5-3.8 1.3-7.1 3.9-7.4l3.4-0.4c2.6-0.3 5.1 2.5 5.6 6.2s-1.2 7-3.9 7.4zm-20.6 2.6l-3.4 0.4c-2.6 0.3-5.1-2.5-5.6-6.2-0.5-3.8 1.3-7.1 3.9-7.4l3.4-0.4c2.6-0.3 5.1 2.5 5.6 6.2 0.4 3.7-1.3 7-3.9 7.4zm-20.7 2.6l-3.4 0.4c-2.6 0.3-5.1-2.5-5.6-6.2-0.5-3.8 1.3-7.1 3.9-7.4l3.4-0.4c2.6-0.3 5.1 2.5 5.6 6.2 0.4 3.7-1.3 7-3.9 7.4z"/>
	<line class="st8" x1="1872.9" x2="2106.5" y1="153.5" y2="124.2"/>
	<path class="st8" d="m2104.6 131.3l-3.4 0.4c-2.6 0.3-5.1-2.5-5.6-6.2-0.5-3.8 1.3-7.1 3.9-7.4l3.4-0.4c2.6-0.3 5.1 2.5 5.6 6.2 0.5 3.8-1.2 7.1-3.9 7.4zm-20.6 2.6l-3.4 0.4c-2.6 0.3-5.1-2.5-5.6-6.2-0.5-3.8 1.3-7.1 3.9-7.4l3.4-0.4c2.6-0.3 5.1 2.5 5.6 6.2s-1.3 7.1-3.9 7.4zm-20.7 2.6l-3.4 0.4c-2.6 0.3-5.1-2.5-5.6-6.2-0.5-3.8 1.3-7.1 3.9-7.4l3.4-0.4c2.6-0.3 5.1 2.5 5.6 6.2 0.4 3.8-1.3 7.1-3.9 7.4zm-20.7 2.6l-3.4 0.4c-2.6 0.3-5.1-2.5-5.6-6.2-0.5-3.8 1.3-7.1 3.9-7.4l3.4-0.4c2.6-0.3 5.1 2.5 5.6 6.2 0.5 3.8-1.3 7.1-3.9 7.4zm-20.7 2.6l-3.4 0.4c-2.6 0.3-5.1-2.5-5.6-6.2-0.5-3.8 1.3-7.1 3.9-7.4l3.4-0.4c2.6-0.3 5.1 2.5 5.6 6.2s-1.3 7.1-3.9 7.4zm-20.6 2.6l-3.4 0.4c-2.6 0.3-5.1-2.5-5.6-6.2-0.5-3.8 1.3-7.1 3.9-7.4l3.4-0.4c2.6-0.3 5.1 2.5 5.6 6.2 0.4 3.8-1.3 7.1-3.9 7.4zm-20.7 2.6l-3.4 0.4c-2.6 0.3-5.1-2.5-5.6-6.2-0.5-3.8 1.3-7.1 3.9-7.4l3.4-0.4c2.6-0.3 5.1 2.5 5.6 6.2 0.4 3.8-1.3 7.1-3.9 7.4zm-20.7 2.6l-3.4 0.4c-2.6 0.3-5.1-2.5-5.6-6.2-0.5-3.8 1.3-7.1 3.9-7.4l3.4-0.4c2.6-0.3 5.1 2.5 5.6 6.2 0.5 3.8-1.3 7.1-3.9 7.4zm-20.7 2.6l-3.4 0.4c-2.6 0.3-5.1-2.5-5.6-6.2-0.5-3.8 1.3-7.1 3.9-7.4l3.4-0.4c2.6-0.3 5.1 2.5 5.6 6.2s-1.3 7.1-3.9 7.4zm-20.7 2.6l-3.4 0.4c-2.6 0.3-5.1-2.5-5.6-6.2s1.3-7.1 3.9-7.4l3.4-0.4c2.6-0.3 5.1 2.5 5.6 6.2s-1.2 7.1-3.9 7.4zm-20.6 2.6l-3.4 0.4c-2.6 0.3-5.1-2.5-5.6-6.2-0.5-3.8 1.3-7.1 3.9-7.4l3.4-0.4c2.6-0.3 5.1 2.5 5.6 6.2 0.4 3.7-1.3 7.1-3.9 7.4zm-20.7 2.6l-3.4 0.4c-2.6 0.3-5.1-2.5-5.6-6.2-0.5-3.8 1.3-7.1 3.9-7.4l3.4-0.4c2.6-0.3 5.1 2.5 5.6 6.2 0.4 3.7-1.3 7-3.9 7.4z"/>
	<line class="st8" x1="1875.8" x2="2109.4" y1="176.6" y2="147.3"/>
	<path class="st8" d="m2107.5 154.5l-3.4 0.4c-2.6 0.3-5.1-2.5-5.6-6.2-0.5-3.8 1.3-7.1 3.9-7.4l3.4-0.4c2.6-0.3 5.1 2.5 5.6 6.2s-1.2 7-3.9 7.4zm-20.6 2.5l-3.4 0.4c-2.6 0.3-5.1-2.5-5.6-6.2-0.5-3.8 1.3-7.1 3.9-7.4l3.4-0.4c2.6-0.3 5.1 2.5 5.6 6.2 0.4 3.8-1.3 7.1-3.9 7.4zm-20.7 2.6l-3.4 0.4c-2.6 0.3-5.1-2.5-5.6-6.2s1.3-7.1 3.9-7.4l3.4-0.4c2.6-0.3 5.1 2.5 5.6 6.2 0.4 3.8-1.3 7.1-3.9 7.4zm-20.7 2.6l-3.4 0.4c-2.6 0.3-5.1-2.5-5.6-6.2-0.5-3.8 1.3-7.1 3.9-7.4l3.4-0.4c2.6-0.3 5.1 2.5 5.6 6.2 0.5 3.8-1.3 7.1-3.9 7.4zm-20.7 2.6l-3.4 0.4c-2.6 0.3-5.1-2.5-5.6-6.2s1.3-7.1 3.9-7.4l3.4-0.4c2.6-0.3 5.1 2.5 5.6 6.2 0.5 3.8-1.3 7.1-3.9 7.4zm-20.6 2.6l-3.4 0.4c-2.6 0.3-5.1-2.5-5.6-6.2-0.5-3.8 1.3-7.1 3.9-7.4l3.4-0.4c2.6-0.3 5.1 2.5 5.6 6.2 0.4 3.8-1.3 7.1-3.9 7.4zm-20.7 2.6l-3.4 0.4c-2.6 0.3-5.1-2.5-5.6-6.2-0.5-3.8 1.3-7.1 3.9-7.4l3.4-0.4c2.6-0.3 5.1 2.5 5.6 6.2 0.4 3.8-1.3 7.1-3.9 7.4zm-20.7 2.6l-3.4 0.4c-2.6 0.3-5.1-2.5-5.6-6.2-0.5-3.8 1.3-7.1 3.9-7.4l3.4-0.4c2.6-0.3 5.1 2.5 5.6 6.2 0.5 3.8-1.3 7.1-3.9 7.4zm-20.7 2.6l-3.4 0.4c-2.6 0.3-5.1-2.5-5.6-6.2-0.5-3.8 1.3-7.1 3.9-7.4l3.4-0.4c2.6-0.3 5.1 2.5 5.6 6.2 0.5 3.8-1.3 7.1-3.9 7.4zm-20.7 2.6l-3.4 0.4c-2.6 0.3-5.1-2.5-5.6-6.2-0.5-3.8 1.3-7.1 3.9-7.4l3.4-0.4c2.6-0.3 5.1 2.5 5.6 6.2s-1.2 7.1-3.9 7.4zm-20.6 2.6l-3.4 0.4c-2.6 0.3-5.1-2.5-5.6-6.2-0.5-3.8 1.3-7.1 3.9-7.4l3.4-0.4c2.6-0.3 5.1 2.5 5.6 6.2 0.4 3.7-1.3 7.1-3.9 7.4zm-20.7 2.6l-3.4 0.4c-2.6 0.3-5.1-2.5-5.6-6.2-0.5-3.8 1.3-7.1 3.9-7.4l3.4-0.4c2.6-0.3 5.1 2.5 5.6 6.2 0.4 3.7-1.3 7.1-3.9 7.4z"/>
	<line class="st8" x1="1878.7" x2="2112.3" y1="199.7" y2="170.4"/>
	<path class="st8" d="m2110.4 177.6l-3.4 0.4c-2.6 0.3-5.1-2.5-5.6-6.2-0.5-3.8 1.3-7.1 3.9-7.4l3.4-0.4c2.6-0.3 5.1 2.5 5.6 6.2s-1.2 7-3.9 7.4zm-20.6 2.6l-3.4 0.4c-2.6 0.3-5.1-2.5-5.6-6.2s1.3-7.1 3.9-7.4l3.4-0.4c2.6-0.3 5.1 2.5 5.6 6.2 0.4 3.7-1.3 7-3.9 7.4zm-20.7 2.5l-3.4 0.4c-2.6 0.3-5.1-2.5-5.6-6.2s1.3-7.1 3.9-7.4l3.4-0.4c2.6-0.3 5.1 2.5 5.6 6.2s-1.3 7.1-3.9 7.4zm-20.7 2.6l-3.4 0.4c-2.6 0.3-5.1-2.5-5.6-6.2-0.5-3.8 1.3-7.1 3.9-7.4l3.4-0.4c2.6-0.3 5.1 2.5 5.6 6.2s-1.3 7.1-3.9 7.4zm-20.7 2.6l-3.4 0.4c-2.6 0.3-5.1-2.5-5.6-6.2-0.5-3.8 1.3-7.1 3.9-7.4l3.4-0.4c2.6-0.3 5.1 2.5 5.6 6.2 0.5 3.8-1.3 7.1-3.9 7.4zm-20.6 2.6l-3.4 0.4c-2.6 0.3-5.1-2.5-5.6-6.2-0.5-3.8 1.3-7.1 3.9-7.4l3.4-0.4c2.6-0.3 5.1 2.5 5.6 6.2 0.4 3.8-1.3 7.1-3.9 7.4zm-20.7 2.6l-3.4 0.4c-2.6 0.3-5.1-2.5-5.6-6.2-0.5-3.8 1.3-7.1 3.9-7.4l3.4-0.4c2.6-0.3 5.1 2.5 5.6 6.2 0.4 3.8-1.3 7.1-3.9 7.4zm-20.7 2.6l-3.4 0.4c-2.6 0.3-5.1-2.5-5.6-6.2-0.5-3.8 1.3-7.1 3.9-7.4l3.4-0.4c2.6-0.3 5.1 2.5 5.6 6.2 0.5 3.8-1.3 7.1-3.9 7.4zm-20.7 2.6l-3.4 0.4c-2.6 0.3-5.1-2.5-5.6-6.2-0.5-3.8 1.3-7.1 3.9-7.4l3.4-0.4c2.6-0.3 5.1 2.5 5.6 6.2 0.5 3.8-1.3 7.1-3.9 7.4zm-20.7 2.6l-3.4 0.4c-2.6 0.3-5.1-2.5-5.6-6.2-0.5-3.8 1.3-7.1 3.9-7.4l3.4-0.4c2.6-0.3 5.1 2.5 5.6 6.2 0.5 3.8-1.2 7.1-3.9 7.4zm-20.6 2.6l-3.4 0.4c-2.6 0.3-5.1-2.5-5.6-6.2-0.5-3.8 1.3-7.1 3.9-7.4l3.4-0.4c2.6-0.3 5.1 2.5 5.6 6.2 0.4 3.8-1.3 7.1-3.9 7.4zm-20.7 2.6l-3.4 0.4c-2.6 0.3-5.1-2.5-5.6-6.2-0.5-3.8 1.3-7.1 3.9-7.4l3.4-0.4c2.6-0.3 5.1 2.5 5.6 6.2 0.4 3.7-1.3 7.1-3.9 7.4z"/>
	<path class="st13" d="m1753.1 310.5c-5.5-15.8-46.7-69.7-55.9-85-8.1-13.4-16.4-26.8-24.4-40.3-8.6-14.4-12.7-30.8-14.6-47.3-0.9-7.3-4.1-20.6-1.9-27.7 0.5-1.5 0.9-2.5 1.4-3.3 2.1-3.7 4.2-1.6 9-6.9 2.4-2.7 3.1-7 1-10-4-5.6-39.3 0.9-51.1 2.7-11.9 1.2-47.7 3.6-50.2 10-1.3 3.4 0.4 7.4 3.4 9.4 5.9 4 7.5 1.5 10.4 4.5 0.6 0.7 1.3 1.6 2.2 2.9 3.9 6.3 4.1 20 5 27.3 2.2 16.5 2.3 33.4-2.5 49.5-4.5 15.1-9.2 30.1-13.7 45.1-5.2 17.1-31.8 79.5-33.2 96.2-1.3 14.8 4.6 31.3 17.8 38.2 10.5 5.5 23.2 3.9 34.9 2.3 11.7-1.7 109.7-14 121.5-15.2 11.8-1.3 24.4-2.9 33.3-10.8 10.8-10.1 12.4-27.5 7.6-41.6z"/>
	<circle class="st13" cx="1636.7" cy="48.2" r="20.3"/>
	<circle class="st13" cx="1575.2" cy="10.3" r="12.4"/>
	<circle class="st13" cx="1601.8" cy="-23.5" r="10.5"/>
<path class="st12" d="m2605.9 548.9c-10.1-22.6-22.1-47.2-44.7-57.4-28.3-12.8-46.5 4.8-72.7 9.2-27.5 4.6-25.4-6.4-52.1-20.2-4.8-2.5-10.7-2.6-16-4.2-15.3-4.4-30.2-2.7-44.9 2.8-12.3 4.5-19 14-23.2 26-7.4-4.8-14.4-9.3-21.4-13.5-20.1-12-40.9-8.5-61.7-2.6-8 2.3-14.9 3.7-20.6 10.4-1.3 1.5-2.7 3.3-4.7 3.2-1.7-5.6-6.1-8.7-6.7-15.3-2.6-24.6-9.9-47.6-20.4-69.8-25.2-52.7-23.9-115.5-60.6-163.9-11.9-15.7-36-34.3-57.4-28.6-27.9 7.3-26.4 39.1-25.3 63.9 0.8 17.6 5.4 34.7 10 51.7 22 80.2 46 159.9 71.9 238.9 4.1 12.4-37.3-19.1-36.2-18.4-16.8-10.9-35.6-15.6-55-19.7-7.4-1.6-15.6-1.6-22.9 0-19.2 4.4-25.8 24.5-13.7 39.7 4 5.2 8.4 10.3 13.5 14.3 17.5 13.7 27.2 32.4 35.3 52.2 2.9 7.2 4.1 15 6.2 22.5 4.9 16.5 13 31 24.3 44.2 6.4 7.6 10.6 17.2 15.5 26.1 14.1 25.9 23 54.5 38.8 78.7 20.7 31.9 47.1 59.5 66.7 92.7 38.8 65.6 66.2 138 79.7 213 0.6 3.2 1.2 6.5 2.1 9.7l428.7-2.7c-26.5-70.9-76.5-134.6-80-213-2-43.7 10.7-86.8 12.8-130.5 3.6-83.4-31.2-163.1-65.3-239.4z"/>
<rect class="st10" transform="matrix(.9922 -.1244 .1244 .9922 5.83 278.03)" x="2210.1" y=".1" width="36.7" height="184.5"/>
<rect class="st10" transform="matrix(.9922 -.1244 .1244 .9922 5.6566 284.66)" x="2263.1" y="16.1" width="36.7" height="161.9"/>
<rect class="st10" transform="matrix(.9922 -.1244 .1244 .9922 5.3846 291.32)" x="2316.3" y="33.7" width="36.7" height="137.8"/>
<rect class="st10" transform="matrix(.9922 -.1244 .1244 .9922 4.3069 298.13)" x="2370.2" y="64.3" width="36.7" height="100.5"/>
<rect class="st10" transform="matrix(.9922 -.1244 .1244 .9922 2.9053 305)" x="2424.5" y="100.3" width="36.7" height="57.9"/>
</svg>