<?xml version="1.0" encoding="UTF-8"?>
<svg viewBox="0 0 400 400" xmlns="http://www.w3.org/2000/svg" xmlns:xlink="http://www.w3.org/1999/xlink">
 <defs>
  <filter id="f">
   <feGaussianBlur stdDeviation="4.06408"/>
  </filter>
  <linearGradient id="a">
   <stop stop-color="#e9e9e9" offset="0"/>
   <stop stop-color="#bbb" offset=".04688"/>
   <stop stop-color="#aea6a6" offset=".75"/>
   <stop stop-color="#d6d2d2" offset=".875"/>
   <stop stop-color="#a6a2a2" offset=".90538"/>
   <stop stop-color="#fff7f7" offset=".94978"/>
   <stop stop-color="#978b8b" offset=".98761"/>
   <stop stop-color="#d6d2d2" offset="1"/>
  </linearGradient>
  <linearGradient id="c" x1="3372.9" x2="3861.5" y1="-1588" y2="-1241.8" gradientUnits="userSpaceOnUse">
   <stop stop-color="#555" offset="0"/>
   <stop stop-color="#8e8e8e" stop-opacity=".58039" offset=".5"/>
   <stop stop-color="#555" stop-opacity=".32353" offset="1"/>
  </linearGradient>
  <linearGradient id="b" x1="3399.3" x2="3950.9" y1="-623.44" y2="-762.03" gradientUnits="userSpaceOnUse">
   <stop offset="0"/>
   <stop stop-opacity="0" offset="1"/>
  </linearGradient>
  <linearGradient id="e" x1="3937.1" x2="2974.6" y1="-1962.4" y2="-1635.1" gradientUnits="userSpaceOnUse" xlink:href="#a"/>
  <linearGradient id="d" x1="3518.6" x2="2746.7" y1="-1256.5" y2="-2465.2" gradientUnits="userSpaceOnUse" xlink:href="#a"/>
 </defs>
 <g transform="translate(0 -652.36)">
  <g font-family="Eras Bold ITC" font-size="225.16">
   <g transform="matrix(.13963 0 0 .13963 -273.57 1077.1)" fill="#1a1a1a">
    <path d="m2881.2-2543.8 486.76-30.396c69.167-5.9591 120.79 12.376 155.65 110.67l575.42 1470.6c17.085 73.102 22.953 160.21-48.467 203.89l-442.67 321.2c-94.047 67.656-230.33 19.559-270.73-84.199l-610.79-1822.7c-8.3341-75.459 18.034-153.57 154.83-169.04z" fill="url(#e)"/>
    <path d="m2895.2-2547.5 506.97-36.457c69.167-5.9591 120.79 12.376 155.65 110.67l544.1 1476.7c17.085 73.102 19.922 131.92-51.498 175.61l-472.98 324.23c-84.704 28.937-150.95-4.9352-178.81-88.239l-595.64-1803.5c-16.152-68.831-7.1707-147.21 92.197-158.94z" fill="url(#d)"/>
    <path d="m2918-2537 489.21-42.857c68.1-5.8673 118.93 12.186 153.25 108.97l535.71 1449.9c16.822 71.975 15.637 143.81-54.682 186.83l-461.71 309.29c-83.398 28.491-124.75-14.805-152.18-96.825l-591.43-1767.8c-15.904-67.77-16.012-135.99 81.825-147.54z" fill="#1a1a1a"/>
    <path d="m3427.9-2580.9c-6.0815 0.084-12.303 0.4187-18.688 0.9688l-489.22 42.875c-97.836 11.545-97.716 79.761-81.813 147.53l50.938 152.25 718.78-110.72-45.438-122.97c-31.104-87.709-75.775-110.75-134.56-109.94z" fill="#000" opacity=".67914"/>
    <path d="m4038-1132.3-644.85 351.8 48.53 144.03c26.249 77.912 65.79 119.03 145.59 91.964l441.79-293.79c67.284-40.857 68.423-109.09 52.327-177.46l-43.387-116.54z" fill="#020202" opacity=".79144"/>
    <path d="m3204.6-2558-262.78 23.031-58.719 255.94 548.47 1651.3c27.433 82.02 68.758 125.3 152.16 96.812l459.72-309.28c70.319-43.011 59.387-112.88 42.566-184.85l-287.12-740.3-594.29-792.62z" fill="url(#c)" filter="url(#f)" opacity=".70588"/>
    <g transform="translate(5136,-24)">
     <path d="m-1976.5-2420.5 127.1-11.847c7.6401-0.7121 15.201 4.7289 16.952 12.2l1.4458 9.0466c1.7514 7.4707-2.9894 14.772-10.63 15.485l-125.67 14.347c-7.6401 0.7122-15.201-4.7288-16.952-12.2l-2.8743-12.261c-1.7514-7.4706 2.9893-14.058 10.629-14.77z" fill="#4c4c4c" opacity=".79144"/>
     <path d="m-1977.3-2420.6 4.6609-0.011s-1.6991 5.8077 2.4999 7.8305c4.7487 2.2877 106.75-8.808 106.75-8.808 7.0835-0.5532 14.447-2.6881 21.074 3.048 5.1539 4.4609 4.9119 13.813 4.9119 13.813 1.6237 5.8033-0.6287 9.3324-7.7122 9.8856l-123.65 13.645c-7.0835 0.5532-13.2-4.3876-14.824-10.191l-3.5577-14.524c-1.6238-5.8032 2.7715-14.135 9.855-14.688z" fill="#000"/>
     <path d="m-1847.8-2409.3c-43.181 3.0307-86.429 14.167-129.66 9.1793-3.4748-3.9745-0.4304 5.3031-0.037 7.6907 0.3987 5.9788 3.7087 11.515 8.7444 9.7158 29.912-5.1943 60.291-6.8749 90.354-11.214 12.304-1.673 24.936-3.2708 36.999-5.9095-0.3299-4.5063-2.0115-10.443-6.3956-9.4618z" fill="#1c1c1c" opacity=".79144"/>
    </g>
    <path transform="matrix(1.047 -.06104 .06104 1.047 4060.1 -4.1287)" d="m-145.71-806.21c0 59.962-35.817 108.57-80 108.57s-80-48.609-80-108.57 35.817-108.57 80-108.57 80 48.609 80 108.57z" fill="#1a1a1a"/>
    <path transform="matrix(.87713,-.48026,.33794,.94117,0,0)" d="m3865.5 1059.7h23.943a15.212 15.212 0 0 1 15.212 15.212v39.372a15.212 15.212 0 0 1 -15.212 15.212h-23.943a15.212 15.212 0 0 1 -15.212 -15.212v-39.372a15.212 15.212 0 0 1 15.212 -15.212" fill="#fff" opacity=".67914"/>
    <path transform="matrix(.97228 -.05668 .05668 .97228 4039 -63.428)" d="m-145.71-806.21c0 59.962-35.817 108.57-80 108.57s-80-48.609-80-108.57 35.817-108.57 80-108.57 80 48.609 80 108.57z" fill="#4b4b4b" opacity=".67914"/>
    <path transform="matrix(.87713,-.48026,.33794,.94117,0,0)" d="m3867.1 1064.2h20.868a13.258 13.258 0 0 1 13.258 13.258v34.316a13.258 13.258 0 0 1 -13.258 13.258h-20.868a13.258 13.258 0 0 1 -13.258 -13.258v-34.316a13.258 13.258 0 0 1 13.258 -13.258" fill="#4e4e4e"/>
    <path d="m2854.9-2537.4c-97.836 11.545-111.86 85.822-95.955 153.59l34.642 113.96 249.25 725.31c160.87 455.01-242.23-708.38-246.81-725.93-12.384-47.398-28.307-117.79 1.2821-166.76-3.2685-19.354-2.9338-19.384 6.409-48.207 11.093-26.926 63.311-58.6 63.311-58.6l-12.134 6.6373z" fill="#000" opacity=".85027"/>
    <path d="m3591.7-457.55c-84.986 49.826-199.2 4.0477-236.96-61.2-18.656-32.242-38.426-96.426-38.426-96.426l-33.704-99.242 16.794-20.284-197.92-634.38c-146.25-459.92 234.26 711.06 241.19 727.82 6.815 16.478 15.095 35.668 25.432 54.436 1.9359 3.5144-37.296-120.42-34.472-117.52 6.5528 6.7137 7.1018 5.0441 19.608 16.416 20.753 55.395 75.244 177.98 113 188.07 46.986 12.56 71.732 15.697 109.85 3.7404 7.9703-2.4998 363.13-252.01 371.92-255.81l31.75 14.157c-82.524 59.24-306.79 222.22-388.07 280.22z" fill="url(#b)" opacity=".96257"/>
   </g>
  </g>
 </g>
</svg>
